<svg xmlns="http://www.w3.org/2000/svg" xmlns:xlink="http://www.w3.org/1999/xlink" id="Layer_1" x="0px" y="0px" viewBox="0 0 42.1 41.81" style="enable-background:new 0 0 42.1 41.81;" xml:space="preserve">
<style type="text/css">
	.st0{fill:#55C0EB;}
	.st1{fill:#F3F3F3;}
	.st2{fill:#415A6B;}
	.st3{fill:#FFFFFF;}
</style>
<path class="st0" d="M40.93,20.93c0,11.03-8.87,19.9-19.9,19.9s-19.9-8.87-19.9-19.9S10,1.03,21.03,1.03S40.93,9.91,40.93,20.93z"></path>
<g>
	<path class="st1" d="M2.62,28.07c0-0.08,0-0.08,0-0.08C2.7,27.98,2.7,28.07,2.62,28.07c0.17,0.08,0.17,0,0.25-0.08   c0,0-0.08,0-0.08-0.08c0-0.17,0.08-0.25,0.25-0.33c0,0.08,0,0.17,0.08,0.17c0.08,0.08,0.17,0.17,0.25,0.17   c0.08-0.08,0.17-0.17,0.25-0.25c0.17,0.08,0.33,0.25,0.5,0.33c0.08,0.08,0.41,0.08,0.5,0c0,0,0-0.08,0.08-0.08   c0,0,0-0.08,0.08-0.08c0.08-0.08,0.08-0.08,0.08-0.17c0-0.08,0-0.08,0-0.17c0.08,0.08,0.17,0.25,0.17,0.33   c0.08,0.25,0.17,0.25,0.41,0.25s0.41-0.08,0.66,0c0.08,0,0.08,0,0.17,0c0.17,0,0.25-0.08,0.33-0.08c0.25,0,0.33-0.08,0.5-0.25   c0.08-0.08,0.17-0.08,0.25-0.08c0.08,0,0.17,0,0.33,0c0.17,0.08,0.41,0.08,0.58,0.25c0.08,0.08,0.17,0.08,0.25,0.17   c0.17,0,0.25-0.08,0.41-0.08c0.25,0,0.41-0.17,0.58-0.25c0.17-0.08,0.25-0.17,0.33-0.25c0.08-0.08,0.17-0.17,0.33-0.08h0.08   c0.08,0,0.25,0,0.33,0c0.33,0,0.58-0.08,0.75-0.33c0.08-0.08,0.08-0.17,0-0.25c-0.08-0.08-0.08-0.17-0.08-0.33   c0-0.08,0-0.17,0-0.17c0-0.17-0.08-0.25-0.17-0.33c-0.08-0.08-0.17-0.17-0.17-0.33c-0.08-0.08-0.08-0.17-0.17-0.25   c0.08-0.08,0-0.17,0-0.33c0-0.08-0.08-0.17-0.08-0.25c-0.08-0.17-0.25,0-0.41-0.08c0,0,0,0,0-0.08l0,0c0.08,0,0.17,0,0.25,0   c0-0.08-0.08-0.08-0.08-0.17c-0.08-0.08-0.08-0.08-0.17-0.17c0.08,0,0.08,0,0.08,0c0.08,0,0.25,0.08,0.25-0.17v-0.08   c0.08-0.08,0.17-0.25,0.08-0.33c0-0.25-0.08-0.5-0.25-0.66c-0.08-0.08-0.25-0.17-0.17-0.33v-0.08v-0.08c0.08-0.17,0-0.33-0.08-0.41   c0.08-0.08,0.08-0.17,0-0.33c-0.08-0.08-0.08-0.17,0.08-0.17c-0.08-0.08-0.25-0.17-0.33-0.25c-0.08-0.08-0.08-0.08-0.17-0.17   c-0.08-0.08-0.08-0.17-0.08-0.17c-0.08-0.08-0.17-0.08-0.08-0.25v-0.08c0-0.08-0.08-0.17-0.08-0.25c0,0,0,0-0.08,0.08l0,0   c-0.17-0.08-0.25-0.08-0.33,0.08c0,0-0.08,0-0.08,0.08c0,0,0,0,0-0.08c0-0.08,0.08-0.08,0.08-0.17c0.08-0.08,0.17-0.08,0.17-0.17   l0,0c0.08,0,0.08,0,0.17,0c0-0.08,0-0.17-0.08-0.17c-0.08,0-0.17-0.08-0.25-0.08s-0.17-0.08-0.25-0.17c-0.08,0-0.08,0-0.17,0   c-0.08,0-0.08,0-0.17,0c-0.08,0-0.17,0-0.17,0c0-0.08,0-0.17,0-0.17c0-0.17-0.08-0.17-0.17-0.25c-0.25,0-0.41,0-0.41-0.17   c0-0.08,0-0.25,0.08-0.41c0-0.08,0.08-0.17,0.08-0.17c0.08-0.08,0.17-0.17,0.33-0.17c0.17-0.08,0.17-0.17,0.08-0.33   c-0.08-0.17-0.25-0.25-0.33-0.41L7.85,17.7c0.17-0.08,0.33-0.17,0.5-0.25c0.08-0.08,0.25-0.08,0.33-0.17l0.08-0.08   c-0.08-0.08-0.08-0.17-0.17-0.17c-0.17-0.17-0.33-0.17-0.5,0l0,0c-0.08,0-0.17,0-0.25,0c-0.08-0.08-0.08-0.17-0.17-0.25   c-0.17-0.08-0.17-0.25-0.17-0.41c0.08-0.25,0.17-0.5,0.33-0.66c0.08,0,0.08-0.08,0.17-0.17c0.08-0.08,0.08-0.08,0.25-0.08h0.08   c0,0,0-0.08,0.08-0.08c0.08-0.08,0.17-0.17,0.17-0.17c0.08,0.08,0.17,0,0.25,0c0.08,0.17,0.17,0.17,0.25,0.08   c0.08,0,0.08,0.08,0.08,0.08c0.08,0.08,0.25,0.17,0.25,0.33c0,0.17,0.17,0.25,0.25,0.33c0-0.08,0.08-0.08,0.08-0.17l-0.08-0.08   c0,0,0.08,0,0.08,0.08c0.08,0.08,0.25,0.17,0.33,0.33c0.08,0.08,0.08,0.17,0.08,0.25s0.08,0.08,0.08,0.17   c0.17,0.08,0.17,0.25,0.08,0.41c-0.08,0.08-0.17,0.17-0.17,0.25c-0.08,0.17-0.08,0.25-0.08,0.41c0.08,0.08,0.17,0.08,0.25,0   c0.08-0.08,0.17-0.17,0.17-0.17c0.08-0.17,0.17-0.33,0.25-0.5c0.08-0.08,0.33-0.17,0.41-0.17c0.08,0,0.17,0,0.33,0.08h0.08   c0.17,0.08,0.25,0.08,0.41,0.17l0.08-0.08c0.08,0,0.08,0,0.17,0.08l0,0c0,0,0-0.08-0.08-0.08c0.08,0,0.08,0.08,0.17,0.08   c0.08-0.17,0.17-0.25,0.25-0.41l0,0c0.08-0.08,0.17-0.08,0.17-0.17c0,0.08-0.08,0.17-0.17,0.17c-0.08,0.08-0.08,0.08-0.17,0.17   c0.17-0.08,0.33-0.08,0.41-0.25v0.08c0.17,0,0.25,0,0.33-0.17c0.08,0.08,0.17,0.08,0.25,0.17l0,0c-0.08,0-0.08-0.08-0.17-0.08l0,0   c0.17,0.08,0.33,0.17,0.41,0.33c0-0.08,0.08-0.17,0.08-0.17c0.08-0.08,0.25-0.17,0.41-0.08c0.08,0,0.08,0,0.17,0   c0.08,0.08,0.17,0.17,0.33,0.08h0.08c0.08,0.08,0.25,0.17,0.33,0.17c0,0-0.08,0-0.08,0.08c0,0-0.08,0-0.17-0.08   c-0.17,0-0.25,0.08-0.17,0.25c0.33-0.08,0.5,0.17,0.75,0.25v-0.08l0,0l0,0l0,0c0-0.08,0-0.17-0.17-0.17   c-0.08,0-0.08-0.33-0.08-0.41c0.08-0.08,0.08-0.25,0.17-0.25c-0.08-0.08-0.08-0.17-0.08-0.25l0,0l0.08,0.08   c0.08,0,0.17,0.08,0.25,0c0.08-0.08,0.08-0.17,0-0.25c-0.08-0.08-0.17-0.17-0.33-0.25c-0.17-0.08-0.33-0.08-0.58-0.17   c0.17,0,0.41,0,0.58,0c0,0,0,0,0.08,0s0.08,0,0.17,0c0.08,0,0.17,0,0.25,0c0.17,0.17,0.33,0.33,0.5,0.58   c0.08,0.08,0.25,0.25,0.33,0.25c0.17,0,0.33,0,0.41,0.17c0.08,0.08,0.25,0.08,0.33,0l0.08-0.08c0.08,0,0.08-0.08,0.08-0.17   c0-0.08-0.08-0.08-0.08-0.17l0.08-0.08c-0.08-0.08-0.17-0.08-0.25-0.08c0-0.08,0-0.08,0.08-0.08s0.08,0.08,0.17,0.08l0,0   c-0.08-0.17-0.08-0.33-0.17-0.5c0.08-0.08,0.08-0.08,0-0.17v-0.08c0-0.08,0-0.17,0-0.25c0.08,0,0.17,0,0.17,0   c0.08-0.08,0.08-0.17,0.08-0.25c0-0.08,0.08-0.08,0.08-0.17h-0.08h0.08c0,0,0-0.08-0.08-0.08l0.08-0.08c0-0.08,0.08-0.08,0.08-0.17   s0.08-0.17,0.08-0.33v-0.08c-0.08,0-0.17,0-0.25,0.08s-0.17,0.08-0.25,0.08h-0.08c-0.08,0-0.17,0-0.25,0c0-0.08,0-0.17,0.08-0.33   c-0.08-0.08-0.08-0.08-0.17-0.17c0.08,0,0.08,0,0.17,0c0.08-0.08,0.25-0.17,0.17-0.33l0.08,0.08l0.25-0.25l-0.08-0.08   c0-0.08,0-0.08-0.08-0.17c-0.08-0.08-0.08-0.08,0-0.17c0-0.08,0.08-0.17,0.08-0.25c0.08-0.08,0.08-0.33-0.08-0.33   c-0.08,0-0.17-0.08-0.17-0.17c0-0.08-0.08-0.17-0.08-0.17l-0.08-0.08c-0.17,0-0.25,0.08-0.17,0.25c-0.25,0-0.33,0.25-0.41,0.33   c-0.08,0.08-0.17,0.17-0.33,0.08c-0.08-0.08-0.17,0-0.17,0.08c0,0.17-0.08,0.33-0.17,0.5c-0.08,0.08-0.17,0.17-0.17,0.25l0.08,0.08   c0,0,0,0-0.08,0h-0.08c-0.17,0.08-0.25,0-0.41,0c-0.08,0-0.08,0-0.17,0l0,0c-0.17,0.17-0.25,0.33-0.41,0.58h-0.08   c0,0-0.08,0.08-0.08,0.17c-0.08-0.08-0.08-0.17-0.17-0.08c0-0.08-0.08-0.08-0.08-0.17c0.25-0.17,0.25-0.25,0.25-0.33l0.08-0.08   c0-0.08,0-0.17,0.08-0.17c0.17-0.17,0.25-0.25,0.41-0.41c-0.08-0.08-0.08-0.17-0.17-0.25c-0.08-0.08-0.17-0.17-0.17-0.17   c0-0.17-0.08-0.25-0.08-0.33v-0.08c0-0.33,0-0.58-0.33-0.75c0.08-0.08,0.17-0.25,0.25-0.33s0.08-0.17,0-0.25c0,0-0.08-0.17,0-0.17   c0.17-0.17,0.33-0.25,0.5-0.33c0.08-0.08,0.17-0.08,0.25-0.17c0.17,0.08,0.41,0,0.58-0.08c0.08,0.08,0.17,0.08,0.25,0.08   c0.08,0,0.08-0.08,0.17-0.17c0,0.08,0.08,0.08,0.17,0c0.08,0,0.08-0.08,0.17,0c0,0.08,0.17,0.08,0.17,0.08   c0.17,0,0.25-0.08,0.41-0.08c-0.08-0.17-0.25-0.33-0.17-0.58c0,0.08,0.08,0.25,0.08,0.33c0,0,0,0.08,0.08,0.08   c0.08,0.08,0.41,0,0.41,0V9.57V9.49h0.08l0.08,0.08c-0.17,0.17,0.08,0.17,0.08,0.25c0-0.08,0.08-0.08,0.08-0.17   c0,0.08,0,0.17,0,0.25c0.17,0,0.33,0,0.5,0c0.08,0,0.08-0.08,0.17-0.17c0.08-0.08,0.08-0.25,0.17-0.33   c0.17,0.08,0.25,0.17,0.25-0.08h0.08c-0.08-0.08-0.08-0.25,0-0.33V8.91c-0.08-0.08-0.17-0.25-0.25-0.33   c-0.08,0.08-0.25,0.17-0.17,0.33c-0.08,0-0.08,0.08-0.17,0.08c-0.08,0-0.08-0.08-0.17-0.08c-0.17,0.08-0.25,0.08-0.41,0.17   c-0.08,0.08-0.17,0.08-0.25,0c0-0.08,0.08-0.17,0.08-0.25s0.08-0.17,0.25-0.08l0,0c0.08-0.08,0.08-0.25,0.17-0.33   c0-0.08,0-0.08-0.08-0.08s-0.08,0.08-0.17,0.08c-0.17,0-0.17,0.08-0.25,0.08c0.08-0.17,0.17-0.25,0.17-0.33s0-0.08,0.08-0.08V8   c0-0.08-0.08-0.17-0.08-0.17c0.08,0,0.17-0.08,0.25-0.08c0,0,0,0,0.08,0c0-0.08,0-0.25,0.08-0.33c0-0.08,0.08-0.17,0.17-0.25V7.09   c0-0.08,0.08-0.17,0.08-0.17l0,0l0,0c0-0.08,0-0.08,0.08-0.17l0,0c-0.08,0.08-0.17,0.08-0.33,0.17c-0.08-0.08-0.25,0-0.33,0.25   H17.8c-0.08,0-0.17,0.08-0.17,0.25s-0.08,0.33,0.08,0.41c-0.08,0-0.17,0.08-0.33,0.17c0.08,0,0.08,0.08,0.17,0.08   c-0.08,0.17-0.33,0.17-0.5,0c-0.08,0.08-0.17,0.17-0.25,0.25C16.72,8.08,16.97,8.08,17.05,8h-0.08c0.08-0.17,0-0.25-0.17-0.33   c0,0.08-0.08,0.17-0.08,0.25L16.8,8c0,0-0.08,0-0.17,0.08c0-0.17,0-0.25,0-0.33l-0.08,0.08c-0.08-0.08-0.25-0.25-0.33-0.33   c-0.17-0.33-0.25-0.33-0.17-0.5c0-0.08,0-0.17-0.08-0.25c-0.08,0-0.08-0.25,0-0.33c0.17-0.25,0.08-0.25-0.08-0.33   c0,0-0.08,0-0.08-0.08c-0.08,0-0.17,0-0.25,0c0,0.25,0,0.25,0.17,0.17c0,0.08,0.08,0.08,0.08,0.08c0.08,0,0.17,0,0.17,0l0,0   c-0.08,0.08-0.17,0.08-0.33,0c-0.08-0.08-0.25,0-0.25,0.08c0,0.08-0.08,0.17-0.08,0.17s-0.08,0-0.17,0c0-0.08,0-0.08,0-0.08   c0.08,0,0.17,0,0.08-0.08c0-0.08,0-0.08,0-0.17V6.09c0-0.08,0-0.17-0.08-0.25c-0.33-0.08-0.5-0.33-0.58-0.58   c0.17-0.08,0.17,0,0.33,0.08c0-0.17,0.08-0.25,0.08-0.33l-0.08-0.08c-0.08,0-0.08-0.08-0.08-0.08c-0.08-0.25-0.25-0.5-0.25-0.83   c0-0.08-0.08-0.17-0.17-0.25c0,0-0.08,0-0.17,0s-0.08,0-0.17-0.08c0.08-0.08,0.17-0.17,0.25-0.33c-0.17,0-0.25,0.08-0.33,0.08H13.9   c0,0-0.08-0.08,0-0.08c0-0.08,0.08-0.25,0.17-0.33c0-0.08,0.08-0.17,0.08-0.25c0,0,0,0-0.08,0c0,0.08,0,0.08-0.08,0.17   c-0.08,0-0.17,0.08-0.25-0.08c0,0-0.08-0.08-0.17-0.08c0.25,0,0.25,0,0.25-0.08c-0.25-0.08-0.5-0.08-0.66-0.17   C11.83,3.11,10.67,3.77,9.5,4.6l0,0c0,0.17,0,0.25,0,0.41c0,0,0.08,0,0.08,0.08c0,0,0-0.08,0.08-0.08c0,0,0-0.08,0-0.17h0.08   c0,0.08,0,0.25,0,0.33l0,0C9.84,5.1,9.84,5.01,9.92,4.93c0,0.08,0,0.08-0.08,0.17c0,0.08-0.08,0.08-0.08,0.17   c0,0.17,0,0.25-0.08,0.33c0,0,0,0.08-0.08,0.08c0,0.08-0.08,0.17-0.08,0.25v0.08c-0.08,0-0.08,0-0.17,0.08l0.08,0.08   c0,0,0,0.08,0,0.17c0,0,0,0.08,0.08,0.08c0,0-0.08,0-0.17,0c0.08,0,0.08,0.08,0.17,0.08C9.34,6.75,9.26,6.84,9.26,6.84   s0,0.08-0.08,0.08c0,0.17,0,0.33-0.08,0.5c0,0,0,0,0,0.08c0,0.08-0.08,0.33-0.08,0.33C8.84,7.92,8.92,7.92,9.01,8   c0,0,0,0.08,0,0.17l0,0C8.84,8,8.84,7.92,8.76,7.75l0,0v0.08c-0.08,0-0.08,0.08-0.08,0.08c0,0.08,0.08,0.17,0,0.33   c0,0.08,0,0.25,0,0.41c-0.08,0-0.33,0.41-0.33,0.5c-0.08,0-0.08,0-0.17,0.08C8.01,9.32,7.93,9.41,7.76,9.57   C7.68,9.66,7.6,9.74,7.51,9.82c-0.08,0.08-0.17,0.17-0.25,0.25l-0.08,0.08C7.1,10.24,7.1,10.32,7.1,10.32   c-0.08,0.17-0.08,0.25,0,0.33l-0.08,0.08c0,0.08-0.08,0.25-0.08,0.33c0,0.08,0,0.08,0,0.17c-0.08,0.08,0,0.17,0,0.25   c0,0.17,0.08,0.33,0,0.41c0,0.17-0.17,0.33-0.17,0.5c-0.08,0.08-0.08,0.25-0.08,0.33c0,0.08,0,0.17,0,0.17   c0,0.08-0.08,0.08-0.08,0.08l-0.08-0.08c0,0.08,0,0.25,0,0.33c0.08,0.17,0,0.25-0.08,0.33l-0.08,0.08c0,0.17,0,0.33,0,0.5   c0.08,0,0.17-0.08,0.17-0.17c0-0.08,0-0.17,0-0.17c0.17-0.25,0.17-0.5,0.25-0.75v-0.08c0-0.25,0.08-0.41,0.25-0.58   c0,0.17,0.17,0.25,0,0.41c-0.08,0.08-0.08,0.25-0.17,0.33v0.08c0,0.17,0,0.33,0,0.5c0,0.08,0,0.17-0.08,0.17c0,0,0,0.08,0,0.17   v0.08c0,0.17-0.08,0.33-0.08,0.5s-0.08,0.33-0.25,0.41c-0.08,0.08-0.17,0.08-0.08,0.17c0,0.17,0,0.41,0.17,0.58v0.08   c0,0.08,0.08,0.25,0.08,0.33s0.08,0.25,0.08,0.33c0.17,0.08,0.25,0.25,0.33,0.25c0.17,0.08,0.25,0.17,0.25,0.41   c0,0.41,0.17,0.66,0.33,0.91c0,0.08,0,0.08-0.08,0.17c0,0.17,0,0.25-0.08,0.33v0.17c0.08,0.08,0.08,0.17,0.08,0.25   c0,0.08,0,0.17,0.08,0.25c0,0.08,0.08,0.08,0.08,0.17c0,0.08,0,0.08,0,0.17h0.08c0-0.17,0-0.17,0.33-0.08c0,0.08,0,0.17,0,0.17   c-0.08,0.08-0.17,0.25-0.17,0.33c-0.08,0.08-0.25,0.17-0.25,0.33c-0.08,0-0.17,0-0.25-0.08l0,0c-0.17,0.08-0.41,0-0.66,0.08l0,0   c-0.08,0.08-0.17,0.08-0.17,0.17l0.08,0.08c-0.08,0.08-0.08,0.08-0.25,0c-0.08,0-0.25,0.17-0.25,0.25c0,0.25-0.08,0.5-0.17,0.75   c-0.08,0.17-0.08,0.25-0.17,0.41c0,0.08-0.08,0.17-0.17,0.25v0.08c0,0.25,0,0.41,0.08,0.66c0.08,0.25,0.17,0.5-0.08,0.66   c-0.25,0.25-0.58,0.5-0.83,0.66c-0.08,0.08-0.17,0.17-0.33,0.17c-0.33,0.17-0.58,0.33-0.83,0.58c0,0,0,0.08-0.08,0.08   c-0.25,0.08-0.5,0.25-0.75,0.33c-0.17,0.08-0.41,0.17-0.5,0.33l-0.08,0.08c-0.08,0-0.08,0.08-0.17,0.08   c0.17,0.5,0.33,1.08,0.5,1.58C2.54,28.07,2.54,28.07,2.62,28.07z"></path>
	<path class="st1" d="M40.52,17.04L40.52,17.04c-0.25,0.17-0.25,0.17-0.5,0.08c0,0-0.08,0-0.08-0.08c-0.17-0.08-0.17-0.08-0.25,0.08   c-0.25,0-0.25-0.17-0.33-0.33c0,0.17-0.08,0.25-0.08,0.33s-0.08,0.25-0.08,0.33c-0.08-0.08-0.08-0.08-0.08-0.08   c-0.08,0-0.17-0.08-0.17-0.25c0-0.08-0.08-0.08-0.08-0.17c-0.08-0.08,0-0.17,0-0.17c0.08-0.08,0.08-0.17,0.08-0.25v-0.08   c0.08-0.17,0-0.25-0.17-0.41c-0.08-0.08-0.25-0.17-0.33-0.08c-0.08-0.08-0.25-0.17-0.33-0.17c-0.08-0.08-0.17,0-0.17,0.08   s0,0.17,0,0.17c0,0.08,0,0.17-0.08,0.17c-0.25,0.08-0.41,0-0.58-0.08c-0.08-0.08-0.17-0.08-0.08-0.25c-0.41-0.17-0.66-0.17-0.91,0   c0.08,0,0.08,0.08,0.17,0.08c-0.08,0-0.08,0.08-0.17,0.08c0-0.08,0-0.17,0-0.25s-0.08-0.17-0.08-0.17c0,0.08-0.08,0.17-0.08,0.17   c-0.08,0-0.17,0-0.25-0.17c-0.08,0-0.17,0-0.17-0.08c-0.08,0.08-0.08,0.08-0.08,0.25c0.17-0.08,0.17-0.08,0.17,0   c-0.08,0-0.17,0.08-0.25,0.08c0,0.08-0.25,0.17-0.5,0.17c0.08-0.08,0.17-0.17,0.25-0.25c0.08,0,0.17,0,0.17-0.08   s0.08-0.17,0.17-0.17c0.08-0.17,0.17-0.33,0.33-0.33c0,0,0,0,0.08,0c0.08-0.08,0.17-0.17,0.17-0.25c0.08-0.08,0.08-0.17,0.08-0.25   s-0.08-0.17,0-0.33V14.3c0-0.08-0.08-0.17-0.08-0.17s0,0-0.08,0.08c0-0.08,0-0.17-0.08-0.17c-0.17-0.17-0.25-0.33-0.5-0.25h-0.08   c-0.08,0-0.17,0-0.17,0.08c-0.08,0.08-0.17,0.17-0.25,0.08c0.08-0.08,0.08-0.08,0.17-0.17c0.08-0.17,0.08-0.17-0.08-0.25   c-0.08,0-0.08,0-0.17-0.08l0,0h-0.08c0-0.08,0.08-0.08,0.08-0.17c0.08-0.08,0.08-0.17,0-0.25c-0.08,0-0.08-0.08-0.17-0.08   c-0.08-0.08-0.25,0-0.25,0.08c-0.08,0.08-0.17,0.25-0.25,0.33c0,0.08-0.08,0.17-0.08,0.25c0,0.08,0,0.08,0,0.17   c-0.17,0-0.25,0-0.41,0.08c0.08,0.08,0.17,0.17,0.08,0.33c-0.08-0.08-0.08-0.08-0.17-0.17c-0.25,0.08-0.25,0.17-0.33,0.25   c-0.08,0-0.08,0.08-0.17,0.08c0,0-0.08,0-0.08-0.08c0.08-0.08,0-0.08-0.08-0.08s-0.17,0-0.33,0c-0.08,0-0.08,0-0.17,0l0.08,0.08   c-0.08,0-0.08,0-0.08,0.08c-0.17,0.08-0.33,0.08-0.41,0.17c-0.08,0-0.25,0.08-0.25,0.17c-0.08,0.08-0.17,0.17-0.25,0.08l0.08,0.08   c0,0.08-0.08,0.17-0.08,0.25c-0.08,0-0.08-0.08-0.17-0.08c-0.08,0.17,0.08,0.08,0.08,0.17l-0.08,0.08l0,0   c0,0.08,0.08,0.08,0.08,0.17c0,0.08-0.08,0.17-0.17,0.17c-0.25,0-0.5,0.08-0.75,0.17c-0.17,0-0.25,0.25-0.17,0.33   c0,0.08,0.08,0.08,0.08,0.17c0,0.08,0,0.17,0.17,0.25c0.08,0.08,0.25,0.17,0.33,0.25v0.08c-0.08,0.17,0,0.33,0,0.5   c0,0.08,0,0.17-0.08,0.17v0.08c-0.08,0-0.17-0.08-0.08-0.17c0-0.17-0.08-0.33,0.08-0.5c0,0,0-0.08,0.08-0.17h-0.08   c-0.17,0-0.25,0-0.33-0.17c-0.08-0.17-0.25-0.17-0.5-0.17c-0.08,0-0.08,0-0.08,0.08l0.08,0.08c-0.17,0.17-0.17,0.17-0.25,0   c-0.08,0.08,0,0.17,0,0.17c0.08,0.08,0.17,0.17,0.25,0.17c0,0.08,0,0.08,0.08,0.17c-0.17-0.08-0.33-0.17-0.5-0.17   c0-0.08,0-0.17,0-0.25s0-0.17,0-0.25c0.08-0.17,0-0.33-0.08-0.41v0.08c0.08,0.17,0,0.33-0.17,0.41l0,0   c-0.08,0.08-0.08,0.17-0.08,0.33c0.08,0.08,0.08,0.17,0.08,0.25s0.08,0.08,0,0.17c-0.08,0.25-0.08,0.41,0,0.75   c0.08,0,0.17,0,0.25,0c0.08,0,0.17,0,0.25,0c0.17,0.08,0.17,0.25,0.25,0.33c0,0.08-0.08,0.17-0.08,0.17s0.08,0.08,0.17,0.17   c-0.17,0-0.17,0-0.17-0.08c0.08-0.17,0-0.33-0.17-0.5c-0.08,0-0.08,0-0.17,0.08c-0.25,0.08-0.25,0.08-0.17,0.33   c0,0.08,0,0.17,0,0.25s-0.08,0.17-0.08,0.25c0,0,0,0.08-0.08,0.08c-0.08,0.08-0.17,0.17-0.25,0.25c-0.08,0-0.17,0-0.17,0   c-0.08,0-0.17-0.08-0.08-0.17c0.08,0.08,0.17,0.17,0.25,0.08c0-0.08,0-0.25,0-0.25c0.17,0,0.08-0.17,0.17-0.25   c0.08-0.17,0.08-0.33,0.08-0.41v-0.08c-0.25-0.25,0-0.5-0.08-0.75l0,0c0-0.17,0.08-0.33-0.08-0.5c-0.08-0.08-0.08-0.17,0-0.25   c0.08-0.17,0.08-0.33,0.08-0.41c0,0,0-0.08-0.08-0.08c-0.17,0-0.33-0.08-0.5-0.08c0,0.08-0.08,0.17-0.08,0.25   c0,0.25-0.08,0.5-0.33,0.58l-0.08,0.08c0,0.08,0,0.08,0,0.17c0,0,0.08,0,0.08,0.08c0,0.17-0.08,0.33-0.08,0.58   c0.17,0,0.25,0.08,0.25,0.17c0,0.08,0.08,0.08,0.08,0.17c0,0.08-0.08,0.17-0.08,0.25c-0.08-0.08-0.17-0.25-0.25-0.25   c-0.25-0.17-0.5-0.41-0.83-0.41c-0.08,0-0.17,0-0.25,0.08c0,0,0,0.08,0,0.17s0.08,0.17,0,0.25c-0.08,0-0.17,0.08-0.08,0.17   c0,0-0.08,0-0.08,0.08v-0.08c0-0.08,0-0.17-0.08-0.25c-0.08,0.08-0.17,0.17-0.25,0.17s-0.08,0.08-0.17,0.08   c-0.17,0-0.33,0-0.41,0.25c-0.08-0.08-0.08-0.17-0.08-0.17c0-0.08,0-0.17,0-0.17l0,0c0,0.08-0.08,0.08-0.08,0.17   c-0.17-0.08-0.08,0.08-0.08,0.08c-0.08,0-0.17,0-0.17,0.08c-0.17,0.08-0.33,0.17-0.41,0.25c-0.08,0.08-0.17,0.08-0.17,0.25   c0,0.17-0.08,0.17-0.17,0.25c-0.08,0-0.17-0.08-0.17-0.08c-0.17-0.17-0.17-0.33,0.08-0.41l0,0c0-0.33-0.17-0.33-0.58-0.33   c0.17,0.08,0.17,0.25,0.17,0.33s0,0.08,0,0.17v0.08c0.08,0.08,0.08,0.17,0.08,0.25s0,0.17-0.08,0.25l-0.08-0.08   c-0.08-0.08-0.25-0.08-0.33,0c-0.08,0.08-0.17,0.17-0.25,0.17c-0.17,0.08-0.17,0.17-0.08,0.25c0,0.08,0.08,0.17,0.08,0.25l0,0   c-0.25-0.08-0.41-0.17-0.66-0.25c0,0.08,0,0.17,0,0.17c0,0.08,0.08,0.08,0.17,0.17l0,0c0,0.08,0,0.08,0.08,0.17   c-0.08,0.08-0.25,0-0.33-0.08s-0.17-0.08-0.17-0.17s-0.08-0.17-0.08-0.25v-0.08c0-0.08,0.08-0.17,0-0.25   c-0.17-0.17-0.25-0.25-0.41-0.41l0,0c0,0,0.08,0,0.08,0.08c0.17,0.08,0.25,0.17,0.41,0.25c0.17,0.08,0.33,0.08,0.5,0.17   c0.08,0,0.25,0,0.33,0c0.17-0.08,0.25-0.17,0.25-0.33c0-0.25-0.08-0.41-0.41-0.5c-0.08,0-0.08-0.08-0.17-0.08   c-0.08-0.08-0.17-0.17-0.33-0.33l-0.08-0.08c-0.17,0-0.41-0.08-0.5-0.17c0,0,0-0.08-0.08-0.08l0,0c0,0,0.08,0,0.08,0.08   c0-0.08,0-0.08-0.17-0.17c0,0,0,0.08-0.08,0.08h-0.25c-0.08-0.08-0.08-0.17-0.17-0.25c0.17,0.08,0.25,0,0.33-0.17   c-0.08-0.08-0.25-0.17-0.33-0.25c0,0.08-0.08,0.17-0.08,0.17l0,0c0-0.08,0-0.17,0-0.25c0,0-0.08,0-0.08-0.08   c-0.08,0.17-0.08,0.25-0.17,0.33l0,0c0-0.08,0-0.17,0-0.25c-0.08,0.17-0.17,0.25-0.25,0.41l0,0c0.08-0.08,0.08-0.25,0.17-0.33   c-0.08,0-0.08-0.08-0.17-0.08l-0.08,0.08c0.08,0.08,0,0.17-0.08,0.17c-0.08,0.08-0.08,0.17-0.17,0.17s-0.17-0.08-0.25-0.08   c0,0.08,0.08,0.17,0.08,0.17c-0.17-0.08-0.25,0-0.25,0.17c0-0.08,0-0.17,0-0.17l-0.08,0.08c-0.17-0.08-0.08,0.08-0.17,0.08H20.2   c0,0.08,0,0.08,0,0.17c-0.08-0.08-0.17-0.08-0.25-0.17c0,0.08-0.08,0.17-0.08,0.25c0.08,0,0.08,0,0.17,0   c0.08,0.17-0.08,0.17-0.17,0.25c0.08,0,0.08,0,0.17,0.08l0,0h-0.17v0.17c0-0.08-0.08-0.08-0.08-0.08c0,0.08,0,0.17-0.08,0.17   c0,0,0,0.08-0.08,0.08s-0.08,0.08-0.17,0.17c0,0,0,0.08-0.08,0.08c-0.17,0.08-0.08,0.33-0.25,0.41c-0.08,0.08-0.08,0.08-0.08,0.17   v0.08v0.08c-0.08,0-0.17,0.08-0.08,0.25c-0.17,0-0.17,0.17-0.25,0.33c0,0.08,0.08,0.08,0.08,0.17c-0.08,0-0.08-0.08-0.17,0   c-0.08,0-0.17,0.08-0.25,0.17c-0.08,0.08-0.17,0.08-0.17,0.17c0,0,0.08,0,0.08,0.08c-0.08,0.08-0.17,0.08-0.17,0.17   c-0.08,0-0.08,0.08-0.17,0.17c0,0,0.08,0,0.08,0.08c-0.08,0-0.17,0.17-0.08,0.17c0,0,0,0.08,0.08,0.08s0.25,0,0.33,0   c0,0,0,0.08-0.08,0.08c-0.08-0.08-0.17,0-0.25,0s-0.08,0.08,0,0.17v0.17c0.17-0.17,0.17-0.17,0.25-0.17   c-0.08,0.08-0.17,0.17-0.17,0.25c-0.08,0-0.08,0.08-0.17,0.08l0,0c0.08,0,0.08,0,0.17,0c0,0.08-0.08,0.08-0.08,0.17v0.08   c0.08,0.08,0.17,0.17,0.25,0.25c0,0,0.08,0,0.17-0.08c0.17-0.08,0.17-0.25,0.33-0.25v-0.08c0-0.08,0-0.08,0-0.17   c0,0.08,0.08,0.25,0.08,0.33c0.08,0.25,0.08,0.41,0.25,0.66c0.08,0.08,0,0.25-0.08,0.25s-0.08,0.08-0.17,0.08   c0.08,0.08,0.17,0.17,0.17,0.25c0-0.08,0.08-0.17,0.08-0.25c0.08,0.17,0.17,0.08,0.25,0.08c0.08-0.17,0.08-0.17,0.25-0.25h0.08   c0.08-0.25,0.08-0.41,0.17-0.66c0-0.08,0.08-0.25,0.17-0.25c0.08,0,0.08-0.08,0.08-0.08c-0.08,0-0.17,0-0.25,0c0,0,0,0,0-0.08   c0.08,0,0.17,0.08,0.25,0c0.08,0,0.17-0.08,0.17-0.17c0-0.17-0.17-0.25-0.33-0.17c0-0.25,0.08-0.41,0.08-0.66l0,0   c0.08-0.17,0.17-0.33,0.41-0.41c0.08-0.08,0.17-0.17,0.25-0.25c0,0,0-0.08,0-0.17c-0.08-0.17,0-0.25,0.08-0.33   c0-0.08,0.08-0.08,0.17-0.17c0.08,0,0.17,0,0.25,0c0,0,0,0,0-0.08l0.08,0.08c0,0.08,0.08,0.17,0.08,0.25l-0.08,0.08l0,0   c-0.08,0.17-0.17,0.33-0.33,0.5c0,0.08-0.08,0.08-0.17,0.08c-0.08,0.08-0.17,0.17-0.17,0.33s0.08,0.33,0,0.5   c0,0.08,0,0.17,0.08,0.17c0.08,0.08,0.17,0.08,0.25,0.17h0.08c0.08,0,0.17-0.08,0.25-0.08c0.17-0.08,0.41-0.08,0.58-0.17l0,0   c-0.08,0.08,0,0.17,0.08,0.17s0.08,0,0.17,0.08c-0.17,0.08-0.25,0.08-0.41,0.17c-0.17,0-0.33-0.08-0.58,0   c-0.08,0.08-0.17,0.08-0.08,0.17c0,0.08,0,0.25,0.17,0.17c0,0.17,0,0.33-0.08,0.41c-0.17,0-0.17-0.17-0.33-0.25   c-0.08,0-0.08,0.08-0.17,0.08c-0.08,0.17-0.17,0.33-0.08,0.5c0,0.08,0,0.17,0,0.33c-0.17-0.08-0.17,0-0.25,0.08   C20.28,24,20.2,24,20.12,24c0,0,0-0.08-0.08-0.17c-0.17,0-0.66,0.17-0.75,0.33c-0.08-0.08-0.08-0.08-0.17-0.08   c0-0.08,0-0.08,0-0.17c-0.17,0.08-0.33,0.17-0.5,0.25c0-0.08,0-0.08,0-0.08c-0.08,0-0.17,0-0.17-0.08   c-0.08-0.08-0.08-0.17-0.08-0.33c0.08,0.08,0.08,0.08,0.08,0.08h0.08c0-0.08,0-0.08,0-0.17c-0.08,0-0.08,0-0.17,0.08   c0-0.08,0.08-0.08,0.08-0.17s0.08-0.08,0.17-0.17c-0.17,0-0.17-0.08-0.17-0.17c0-0.08,0-0.17,0-0.25   c-0.08,0.08-0.17,0.17-0.25,0.17c-0.17,0.17-0.25,0.33-0.08,0.58v0.08c0,0.08,0,0.25,0,0.33l0,0c0,0.08-0.08,0.08-0.08,0.17   c-0.08-0.08-0.17-0.08-0.25,0c0,0,0,0-0.08,0c-0.17,0-0.17,0-0.25,0.17v0.08l0,0v-0.17l0,0c0,0.08-0.08,0.25-0.17,0.41   c-0.08,0-0.17,0.08-0.33,0.17L16.88,25c0,0.08-0.08,0.17-0.17,0.25c0,0-0.08,0-0.08,0.08c-0.08,0.08-0.17,0.08-0.25,0H16.3   c0,0.08,0,0.17,0.08,0.25c-0.08,0-0.17,0-0.25,0c-0.17-0.08-0.25,0-0.33,0c0,0.17,0.08,0.17,0.17,0.17c0.17,0,0.25,0.08,0.25,0.25   c0,0,0,0.08,0.08,0.08c0.17,0.08,0.08,0.17,0.08,0.25c0,0.08,0,0.17,0,0.17c0,0.25-0.08,0.33-0.33,0.25   c-0.25,0-0.58-0.08-0.83-0.08c-0.08,0-0.17,0.08-0.25,0.17v0.08v0.08c0.08,0.25,0,0.5-0.08,0.75c0,0.08,0,0.17,0.08,0.17   c0,0.08,0,0.17,0,0.25h0.08c0.17,0,0.33-0.08,0.41,0.17c0,0.08,0.08,0.08,0.17,0c0.08-0.08,0.17-0.08,0.33-0.08   c0.25,0.08,0.33-0.17,0.41-0.25c0.08,0,0.08-0.17,0.17-0.25c-0.08-0.08-0.08-0.17,0-0.25c0.08-0.17,0.25-0.33,0.41-0.41   c0.08-0.08,0.17-0.08,0.08-0.25c0-0.08,0-0.17,0.08-0.17s0.17,0,0.33,0c0.08,0,0.08,0,0.17,0c0.17-0.08,0.25-0.17,0.33-0.25   s0.08-0.08,0.17,0c0.08,0,0.17,0.08,0.17,0.17c0,0.08,0.08,0.17,0.17,0.25c0,0,0.08,0.08,0.17,0.08c0.17,0.08,0.25,0.17,0.41,0.33   c0.08,0.08,0.17,0.08,0.17,0.17c0,0.08,0.08,0.17,0.08,0.25c-0.08,0.08-0.25,0.17-0.41,0.17c-0.08,0-0.08,0-0.17,0   c0,0,0,0.08,0.08,0.08c0.08,0.08,0.17,0.08,0.25,0.17c0.08,0,0.08,0,0.08-0.08s0-0.17,0-0.25l0,0h0.08c0-0.08,0.08-0.17,0.08-0.17   c0.08-0.08,0.08-0.08,0-0.17c0,0,0-0.08,0-0.17h0.08c0.08,0,0.08,0.08,0.17,0.08c-0.08-0.25-0.25-0.25-0.41-0.33V26.9   c-0.25,0-0.33-0.08-0.41-0.25c0-0.08-0.08-0.17-0.17-0.25c-0.17-0.08-0.08-0.17-0.08-0.33c0,0,0.08-0.08,0.17-0.08   c0,0.08,0.08,0.17,0.08,0.25c0.08-0.08,0.08-0.08,0.08-0.17c0.08,0.08,0.08,0.17,0.17,0.25c0,0.08,0.08,0.17,0.08,0.17   c0.08,0,0.17,0.08,0.25,0.17c0.08,0.08,0.25,0.17,0.25,0.25c0,0.17,0,0.33,0.08,0.41c0,0.08,0.08,0.17,0.17,0.25   c0.08,0.08,0.08,0.17,0.17,0.25c-0.08,0.17,0.08,0.33,0.25,0.33c0-0.08,0-0.08,0-0.17h0.08c0,0,0-0.08-0.08-0.17   c0.08,0,0.08,0.08,0.17,0.08v-0.08h0.08c-0.08-0.17-0.17-0.25-0.25-0.25c0-0.08,0-0.17,0-0.17c0-0.08,0-0.08,0-0.17   c0.08,0,0.17,0,0.17,0.08c0,0,0-0.08,0-0.17c0.17-0.17,0.25,0,0.41,0c0,0.08-0.08,0.25-0.08,0.33l0,0l0.08-0.08   c0,0.08,0,0.08,0,0.08v0.08H20.7v0.08c0.08,0,0.08,0.08,0.17,0.17c0.08,0.08,0.08,0.17,0.25,0.17c0,0,0.08,0,0.08,0.08   c0.17,0.08,0.17,0.08,0.25-0.08l0,0c0.08,0,0.08,0.08,0.17,0.08c0.17,0.08,0.25,0.08,0.41,0h0.08c0.08,0,0.08,0,0.17,0   c0,0.08,0,0.17,0,0.17c0,0.08,0,0.17,0,0.25c-0.08,0.17-0.17,0.33-0.25,0.58c-0.08,0.17-0.25,0.25-0.41,0.17   c-0.08-0.08-0.17-0.08-0.25-0.08c-0.08,0-0.17,0.08-0.25,0.08c-0.08,0-0.17,0-0.17,0c-0.17,0-0.33-0.08-0.41-0.08   c-0.17,0-0.25-0.08-0.41-0.17c0,0,0,0-0.08-0.08c-0.08,0-0.08-0.08-0.17-0.08c-0.08,0-0.25,0-0.33,0.08   c-0.08,0.08-0.08,0.17-0.08,0.25c0,0,0,0.08-0.08,0.08s-0.17,0.08-0.17,0c-0.17,0-0.25-0.08-0.41-0.17c-0.08,0-0.08-0.08-0.08-0.08   c-0.08-0.17-0.25-0.25-0.41-0.25c-0.25,0-0.41-0.17-0.58-0.25c0.08-0.08,0.17-0.08,0.17-0.17c0.08-0.08,0.08-0.17,0.08-0.17   c-0.08-0.08-0.08-0.17,0-0.25v-0.08c-0.08,0-0.08,0-0.17,0.08c0-0.17-0.08-0.08-0.17-0.08c-0.08,0.08-0.17,0.08-0.33,0   c-0.08,0-0.17,0-0.33,0h-0.08c-0.25-0.08-0.5,0-0.75,0.08c-0.25,0.08-0.41,0.25-0.75,0.25h-0.08c-0.08,0-0.17,0-0.17-0.08   c-0.08-0.08-0.17-0.08-0.17,0c-0.08,0.17-0.17,0.33-0.33,0.41c-0.17,0.08-0.33,0.33-0.33,0.5c0,0.17-0.08,0.25-0.17,0.33   c-0.17,0.17-0.41,0.17-0.5,0.41c0,0,0,0-0.08,0.08c0,0,0,0.08-0.08,0.08c-0.08,0.25-0.25,0.41-0.33,0.66c0,0.08-0.08,0.17,0,0.25   c0.08,0.08,0.08,0.17,0,0.25v0.08c0,0.08,0,0.25,0,0.33s-0.08,0.17-0.08,0.17c0,0.08-0.08,0.17-0.17,0.25   c0.08,0.08,0.17,0.17,0.17,0.33c0,0.08,0.08,0.17,0.17,0.17h0.08c0.08,0.17,0.25,0.25,0.33,0.41c0,0,0.08,0.08,0.08,0.17   c0,0.08,0.08,0.17,0.17,0.25c0.17,0.08,0.33,0.25,0.5,0.33c0.17,0.08,0.33,0.25,0.58,0.08c0.17-0.08,0.41-0.08,0.58,0   c0.08,0,0.17,0,0.25,0c0.25-0.17,0.5-0.25,0.83-0.25c0.17,0,0.25,0.08,0.33,0.25c0,0.08,0.08,0.17,0.17,0.08c0.08,0,0.17,0,0.25,0   c0.17,0,0.33,0.17,0.33,0.33c0,0.08,0,0.17-0.08,0.33c0,0.08-0.08,0.17-0.08,0.25c0,0,0,0.08,0,0.17c0.08,0.17,0.25,0.33,0.41,0.5   c0.08,0.08,0.17,0.17,0.17,0.25c0.08,0.08,0.08,0.25,0.08,0.33s0,0.17,0,0.25c0,0.08,0,0.17,0.08,0.17c0.08,0.08,0.08,0.33,0,0.33   c-0.17,0.17-0.25,0.41-0.25,0.58c-0.08,0.25-0.08,0.41,0.08,0.58c0.25,0.33,0.33,0.75,0.41,1.16c0,0.17,0,0.33,0.17,0.5   c0.17,0.08,0.17,0.25,0.25,0.41c0.08,0.08,0.08,0.25,0.17,0.33c0.08,0.08,0.08,0.17,0,0.25c0,0,0,0.08,0.08,0.08   c0.41,0,0.83,0.08,1.16,0.08c0.08,0,0.17,0,0.25,0c0.08-0.08,0.17-0.08,0.25-0.08c0.25-0.17,0.41-0.41,0.5-0.66   c0.08-0.08,0.08-0.17,0.17-0.25c0.17-0.17,0.17-0.33,0.17-0.5s0-0.17,0.08-0.17c0.08,0,0.17-0.08,0.17-0.08   c0.08,0,0.17-0.08,0.17-0.17c0-0.17,0.08-0.41-0.08-0.58c-0.08-0.08-0.08-0.17,0.08-0.25c0.08-0.08,0.17-0.17,0.25-0.17   c0.08-0.08,0.08-0.17,0.17-0.17c0.17-0.08,0.33-0.17,0.41-0.33c0.08-0.08,0.08-0.17,0.08-0.25c0-0.17-0.08-0.33,0-0.5   c0-0.08,0-0.17,0-0.17c-0.08-0.17-0.17-0.25-0.17-0.41c0,0,0-0.08,0-0.17c-0.08-0.08-0.08-0.17,0-0.25c0-0.08,0.08-0.17,0.08-0.25   c0.08-0.33,0.33-0.41,0.58-0.66c0.17-0.17,0.33-0.25,0.5-0.41c0.25-0.25,0.5-0.5,0.58-0.83c0,0,0-0.08,0.08-0.08   c0.17-0.17,0.17-0.33,0.17-0.58c0-0.08-0.08-0.08-0.17-0.08c-0.08,0-0.17,0.08-0.17,0.08c-0.17,0-0.25,0.08-0.41,0.08   c-0.08,0-0.25,0-0.33,0.08c0,0-0.08,0-0.08-0.08c-0.08-0.08-0.17-0.08-0.17-0.17c0.08-0.08,0.08-0.08,0-0.17   c-0.08-0.08-0.17-0.17-0.25-0.25c-0.08-0.08-0.08-0.08-0.17-0.17c-0.17-0.08-0.25-0.17-0.25-0.25c0-0.08-0.08-0.25-0.17-0.25   c-0.17-0.08-0.17-0.25-0.17-0.41c0-0.08-0.08-0.25-0.17-0.33c-0.08-0.08-0.25-0.17-0.17-0.33l0,0c-0.08-0.08-0.17-0.17-0.17-0.33   c-0.08-0.17-0.17-0.41-0.33-0.58c0,0,0-0.08,0-0.17c0.08,0.08,0.08,0.17,0.17,0.25c0,0.08,0.08,0.08,0.17,0.08   c0-0.08,0.08-0.08,0.08-0.17c0,0,0.08,0.08,0.08,0.17c0.08,0.17,0.25,0.41,0.33,0.58c0,0,0,0.08,0.08,0.08   c0.17,0.08,0.25,0.25,0.25,0.41s0,0.25,0.17,0.33c0.08,0,0.08,0.17,0.17,0.17c0.08,0.08,0.08,0.17,0.17,0.25   c0.08,0.08,0.08,0.25,0.17,0.33c0.08,0.17,0.08,0.33,0.08,0.5l0.08,0.08c0.08,0,0.17,0,0.25-0.08c0,0,0.08,0,0.08-0.08   c0.08,0,0.17-0.08,0.25-0.08c0.08-0.08,0.25-0.08,0.33-0.17c0.08-0.08,0.25-0.08,0.33-0.17l0.08-0.08   c0.08-0.08,0.08-0.08,0.17-0.17c0.17-0.08,0.33,0,0.41-0.17h0.08c0.08-0.08,0.17-0.17,0.25-0.25v-0.08c0-0.08,0-0.08,0.08-0.17   c0.17-0.08,0.17-0.17,0.25-0.33v-0.08c-0.08-0.08-0.25-0.25-0.41-0.25c-0.08,0-0.17-0.17-0.17-0.25c0-0.08,0-0.08,0-0.17   c-0.08,0.17-0.25,0.25-0.33,0.33l-0.08,0.08c-0.08,0-0.25,0-0.33,0l-0.08-0.08c0-0.08,0-0.08,0-0.17v-0.08l0,0   c0,0.08-0.08,0.08-0.08,0.17c-0.08-0.08-0.08-0.17-0.08-0.25c0,0,0-0.08-0.08-0.08c-0.08-0.08-0.17-0.17-0.25-0.25   c-0.08-0.17-0.08-0.25,0-0.41l0,0c0.08,0,0.17,0.08,0.25,0.08c0.08,0.08,0.17,0.17,0.17,0.33c0,0,0,0.08,0.08,0.08   c0.08,0.08,0.25,0.17,0.33,0.17c0.08,0.08,0.33,0.08,0.41,0c0.08-0.08,0.17-0.08,0.17,0c0,0.17,0.17,0.17,0.25,0.17s0.17,0,0.25,0   c0.08,0,0.17,0.08,0.33,0c0.25,0,0.5,0,0.75,0h0.08c0.08,0.08,0.25,0.25,0.33,0.33c0.08,0.08,0.17,0.08,0.25,0.08h0.08l0,0   c-0.08,0-0.17,0.08-0.25,0.08c0.08,0.08,0.17,0.08,0.17,0.17c0.17,0.17,0.33,0.08,0.41-0.08c0,0,0-0.08,0.08-0.08   c0,0.08,0,0.17,0,0.25c0,0.08,0,0.17,0,0.17c0,0.25,0,0.5,0.17,0.75c0.17,0.33,0.33,0.75,0.5,1.08c0,0.08,0.08,0.08,0.08,0.17   c0.08,0.08,0.08,0.08,0.17,0c0-0.08,0.08-0.08,0.08-0.08s0,0,0.08-0.08c0-0.08,0.08-0.08,0.17-0.17c0-0.17,0.17-0.41,0.08-0.66   c0,0,0-0.08,0-0.17l0.08-0.08c0.08-0.08,0.17-0.08,0.25-0.17c0.25-0.17,0.41-0.33,0.66-0.5c0.08-0.08,0.17-0.08,0.17-0.17   c0-0.17,0.08-0.17,0.17-0.25c0.17,0.08,0.25,0,0.33,0c0.08,0,0.08-0.08,0.17-0.17c0.08,0,0.17,0.08,0.17,0.17   c0.08,0.08,0.08,0.25,0.17,0.33c0.08,0.08,0.17,0.17,0.25,0.33c0.08,0.08,0,0.25,0,0.41c0.08,0.08,0.33,0,0.41-0.17   c0.17,0,0.17,0.17,0.17,0.33c0,0.08,0,0.17,0.08,0.25c0.08,0.17,0.08,0.41,0.08,0.58c0,0.17,0,0.25-0.08,0.33   c0.08,0.08,0.08,0.08,0.17,0.08c0.17,0.17,0.25,0.33,0.25,0.5c0,0.25,0.25,0.41,0.5,0.58c0,0,0.08,0,0.17,0c0-0.08,0-0.08,0-0.17   c0-0.08-0.08-0.17-0.08-0.25c0-0.25-0.17-0.41-0.33-0.5c-0.17,0-0.17-0.08-0.17-0.17c0-0.08,0-0.25-0.17-0.25c0-0.08,0-0.17,0-0.17   c0-0.17,0.08-0.33,0.08-0.5l0.08-0.08c0,0,0.08,0,0.08,0.08v0.08c0.17,0,0.25,0,0.33,0.08c0.08,0.17,0.17,0.25,0.33,0.25   c0.08,0,0.08,0.08,0.08,0.17c0,0.08,0,0.08,0,0.17l0,0c0.08-0.08,0.08-0.08,0.17-0.17c0.08-0.08,0.08-0.17,0.25-0.17   s0.33-0.08,0.33-0.33c0-0.17,0-0.33-0.08-0.5c0-0.08-0.08-0.08-0.08-0.17c-0.17-0.17-0.25-0.25-0.41-0.41c0,0,0-0.08,0-0.17   c0.08-0.17,0.17-0.33,0.41-0.41c0.08,0,0.17,0,0.25,0c0.08,0.08,0.08,0.17,0.08,0.25l0,0c0-0.17,0-0.17,0.17-0.25   c0.08,0,0.08,0,0.17,0c0.08,0,0.17,0,0.17-0.08c0.08,0,0.08-0.08,0.17,0c0,0,0,0,0.08,0c0.08,0,0.17-0.08,0.25-0.08   c0.08,0,0.08-0.08,0.17-0.08c0.08-0.08,0.17-0.17,0.25-0.25c0.17-0.08,0.25-0.17,0.25-0.33l0,0c0.17-0.17,0.33-0.41,0.41-0.66   c-0.08,0-0.08-0.08-0.17-0.08c0.08,0,0.08-0.08,0.17-0.08l-0.08-0.08l0.08-0.08c-0.08-0.08-0.17-0.17-0.17-0.25   c-0.08-0.17-0.08-0.33-0.25-0.33c0.08-0.08,0.08-0.08,0.08-0.17c0.08-0.08,0.17-0.08,0.17-0.08c0-0.08,0.17-0.08,0.25-0.17   c0,0,0.08,0,0.08-0.08l0,0h-0.08c-0.17-0.08-0.25-0.08-0.33,0h-0.08c-0.08-0.08-0.08-0.08-0.17-0.17c0,0-0.08-0.08-0.08-0.17   l0.08-0.08c0.08,0,0.08,0,0.17-0.08c0.08-0.08,0.25-0.25,0.33-0.33h0.08c0,0,0,0.08,0,0.17c0,0.08-0.08,0.08-0.08,0.17   c0.08,0.08,0.08,0.08,0,0.17c0.08-0.08,0.17-0.08,0.25-0.17c0.08,0,0.17-0.08,0.17-0.08c0.08,0,0.17,0.08,0.25,0.08   c0,0.08-0.08,0.17-0.08,0.33l0.08,0.08c0.17-0.08,0.25,0,0.25,0.17c0,0-0.08,0-0.08,0.08c0.25,0.17,0,0.33,0.08,0.5   c0.08-0.08,0.25-0.08,0.33-0.17c0.17-0.08,0.17-0.17,0.17-0.33c0-0.17-0.17-0.33-0.25-0.5c-0.08-0.08-0.08-0.17,0-0.25   c0.17-0.08,0.33-0.17,0.25-0.33c0,0,0-0.08,0.08-0.08c0.08-0.08,0.17-0.25,0.33-0.33c0.08,0,0.08,0.08,0.17,0.08   c0.17,0.08,0.33-0.08,0.41-0.17c0.17-0.17,0.33-0.41,0.5-0.66c0.17-0.66,0.33-1.33,0.41-2.07l0,0c-0.08-0.08-0.17-0.08-0.25-0.08   c0,0.08,0,0.08,0,0.17c-0.08,0-0.17,0-0.17,0c0-0.08,0-0.08,0-0.17c0,0.08-0.08,0.08-0.08,0.08l0,0c0-0.08,0-0.17,0-0.17   c-0.08,0-0.17,0-0.25-0.08c0-0.08,0-0.08,0-0.08c0.25-0.25,0.5-0.58,0.83-0.83l0.08-0.08c0-0.08,0.08-0.08,0.08-0.17   c0-0.5,0.08-1,0.08-1.49C40.93,19.61,40.77,18.28,40.52,17.04z"></path>
</g>
<path class="st2" d="M38.44,27.9H3.62c-1.41,0-2.49-1.08-2.49-2.49v-8.96c0-1.41,1.08-2.49,2.49-2.49h34.83  c1.41,0,2.49,1.08,2.49,2.49v8.87C40.93,26.74,39.85,27.9,38.44,27.9z"></path>
<g>
	<path class="st3" d="M15.46,18.21l-2.27,6.27h-1.75l-1.41-3.89l-1.46,3.89H6.82l-2.26-6.27h1.71l1.48,4.24l1.54-4.24h1.54   l1.49,4.24l1.53-4.24H15.46z"></path>
	<path class="st3" d="M26.24,18.21l-2.27,6.27h-1.75l-1.41-3.89l-1.46,3.89H17.6l-2.26-6.27h1.71l1.48,4.24l1.54-4.24h1.54   l1.49,4.24l1.53-4.24H26.24z"></path>
	<path class="st3" d="M37.01,18.21l-2.27,6.27h-1.75l-1.41-3.89l-1.46,3.89h-1.75l-2.26-6.27h1.71l1.48,4.24l1.54-4.24h1.54   l1.49,4.24l1.53-4.24H37.01z"></path>
</g>
</svg>