<svg xmlns="http://www.w3.org/2000/svg" xmlns:xlink="http://www.w3.org/1999/xlink" width="96" height="96" viewBox="0 0 96 96"><defs><clipPath id="clip-path"><rect id="Rect&#xE1;ngulo_1227" data-name="Rect&#xE1;ngulo 1227" width="96" height="96" fill="none"></rect></clipPath></defs><g id="Grupo_5741" data-name="Grupo 5741" transform="translate(-114 -204)"><path id="Trazado_13493" data-name="Trazado 13493" d="M186,300H138a24,24,0,0,1-24-24V228a24,24,0,0,1,24-24h48a24,24,0,0,1,24,24v48a24,24,0,0,1-24,24" fill="#ff3a55" fill-rule="evenodd"></path><g id="Grupo_5740" data-name="Grupo 5740" transform="translate(114 204)"><g id="Grupo_5739" data-name="Grupo 5739" transform="translate(0 0)" clip-path="url(#clip-path)"><path id="Trazado_13494" data-name="Trazado 13494" d="M159,231h27a13.5,13.5,0,0,0,1.38-26.931c-.459-.025-.913-.069-1.38-.069H138a24,24,0,0,0-24,24v48a45,45,0,0,1,45-45" transform="translate(-114 -204)" fill="#ff796c" fill-rule="evenodd"></path><path id="Trazado_13495" data-name="Trazado 13495" d="M330,324a24,24,0,1,0,24,24V300a24,24,0,0,1-24,24" transform="translate(-257.998 -276)" fill="#e00047" fill-rule="evenodd"></path></g></g><path id="Trazado_13496" data-name="Trazado 13496" d="M373.5,309.75a3.75,3.75,0,1,1-3.75-3.75,3.75,3.75,0,0,1,3.75,3.75Zm0,0" transform="translate(-189 -76.5)" fill="#fff"></path><path id="Trazado_13497" data-name="Trazado 13497" d="M252,330a12,12,0,1,1-12,12,12,12,0,0,1,12-12Zm0-6a18,18,0,1,1-18,18,18,18,0,0,1,18-18Zm0,0" transform="translate(-90 -90)" fill="#fff" fill-rule="evenodd"></path><path id="Trazado_13498" data-name="Trazado 13498" d="M228,273a15,15,0,0,0-15-15H183a15,15,0,0,0-15,15v30a15,15,0,0,0,15,15h30a15,15,0,0,0,15-15Zm6,0a21,21,0,0,0-21-21H183a21,21,0,0,0-21,21v30a21,21,0,0,0,21,21h30a21,21,0,0,0,21-21Zm0,0" transform="translate(-36 -36)" fill="#fff" fill-rule="evenodd"></path></g></svg>