<svg xmlns="http://www.w3.org/2000/svg" xmlns:xlink="http://www.w3.org/1999/xlink" width="96.075" height="96.075" viewBox="0 0 96.075 96.075"><defs><clipPath id="clip-path"><rect id="Rect&#xE1;ngulo_1226" data-name="Rect&#xE1;ngulo 1226" width="96" height="96" transform="translate(0 0.075)" fill="none"></rect></clipPath></defs><g id="Grupo_5738" data-name="Grupo 5738" transform="translate(-114 -204)"><path id="Trazado_13489" data-name="Trazado 13489" d="M186.057,300.075H138.019A24.02,24.02,0,0,1,114,276.057V228.019A24.02,24.02,0,0,1,138.019,204h48.038a24.019,24.019,0,0,1,24.019,24.019v48.038a24.019,24.019,0,0,1-24.019,24.019" fill="red" fill-rule="evenodd"></path><g id="Grupo_5737" data-name="Grupo 5737" transform="translate(114 204)"><g id="Grupo_5736" data-name="Grupo 5736" clip-path="url(#clip-path)"><path id="Trazado_13490" data-name="Trazado 13490" d="M159.035,231.021h27.021a13.511,13.511,0,0,0,1.381-26.952c-.459-.025-.914-.069-1.381-.069H138.019A24.02,24.02,0,0,0,114,228.019v48.038a45.037,45.037,0,0,1,45.035-45.035" transform="translate(-114 -204)" fill="#ff5a51" fill-rule="evenodd"></path><path id="Trazado_13491" data-name="Trazado 13491" d="M330.017,324.019a24.019,24.019,0,1,0,24.019,24.019V300a24.019,24.019,0,0,1-24.019,24.019" transform="translate(-257.96 -275.981)" fill="#d5002c" fill-rule="evenodd"></path></g></g><path id="Trazado_13492" data-name="Trazado 13492" d="M250.576,309.921A3,3,0,0,0,246,312.477V349.77a3,3,0,0,0,4.576,2.556c7.655-4.709,22.936-14.114,30.3-18.645a3,3,0,0,0,0-5.114c-7.363-4.532-22.645-13.937-30.3-18.645Zm0,0" transform="translate(-98.974 -79.086)" fill="#fff" fill-rule="evenodd"></path></g></svg>