<svg xmlns="http://www.w3.org/2000/svg" xmlns:xlink="http://www.w3.org/1999/xlink" width="96" height="96" viewBox="0 0 96 96"><defs><clipPath id="clip-path"><rect id="Rect&#xE1;ngulo_1228" data-name="Rect&#xE1;ngulo 1228" width="96" height="96" fill="none"></rect></clipPath></defs><g id="Grupo_5744" data-name="Grupo 5744" transform="translate(-114 -204)"><path id="Trazado_13499" data-name="Trazado 13499" d="M186,300H138a24,24,0,0,1-24-24V228a24,24,0,0,1,24-24h48a24,24,0,0,1,24,24v48a24,24,0,0,1-24,24" fill="#0f9dff" fill-rule="evenodd"></path><g id="Grupo_5743" data-name="Grupo 5743" transform="translate(114 204)"><g id="Grupo_5742" data-name="Grupo 5742" clip-path="url(#clip-path)"><path id="Trazado_13500" data-name="Trazado 13500" d="M159,231h27a13.5,13.5,0,0,0,1.38-26.931c-.459-.025-.913-.069-1.38-.069H138a24,24,0,0,0-24,24v48a45,45,0,0,1,45-45" transform="translate(-114 -204)" fill="#00b7ff" fill-rule="evenodd"></path><path id="Trazado_13501" data-name="Trazado 13501" d="M330,324a24,24,0,1,0,24,24V300a24,24,0,0,1-24,24" transform="translate(-257.998 -276)" fill="#1d83ff" fill-rule="evenodd"></path></g></g><path id="Trazado_13502" data-name="Trazado 13502" d="M212.347,347.23c23.007,0,35.768-19.536,34.992-36.6a24.808,24.808,0,0,0,4.585-4.3.747.747,0,0,0-.814-1.18,25.448,25.448,0,0,1-3.087.782.374.374,0,0,1-.291-.666,12.358,12.358,0,0,0,3.254-3.911.738.738,0,0,0-.987-.991,25.184,25.184,0,0,1-6,1.982,12.309,12.309,0,0,0-21.287,8.424,13.1,13.1,0,0,0,.22,2.339.376.376,0,0,1-.392.444,34.919,34.919,0,0,1-23.334-11.062,1.489,1.489,0,0,0-2.527.546,11.954,11.954,0,0,0,3.74,13.344.367.367,0,0,1-.279.65,11.949,11.949,0,0,1-2.072-.474,1.483,1.483,0,0,0-1.451.294,1.422,1.422,0,0,0-.473,1.4c2.608,10.038,9.668,8.759,9.668,9.518,0,.515-1.4.515-3.268.52a1.478,1.478,0,0,0-1.3,2.16,12.418,12.418,0,0,0,9.475,6.11.371.371,0,0,1,.189.671,24.555,24.555,0,0,1-11.561,4.495,1.453,1.453,0,0,0-.463,2.781,34.412,34.412,0,0,0,13.464,2.718Zm0,0" transform="translate(-61.482 -70.846)" fill="#fff"></path></g></svg>