<svg xmlns="http://www.w3.org/2000/svg" xmlns:xlink="http://www.w3.org/1999/xlink" id="Capa_1" x="0px" y="0px" viewBox="0 0 40 40" style="enable-background:new 0 0 40 40;" xml:space="preserve">
<style type="text/css">
	.icono-wordpress-0{fill:#1C769B;}
	.icono-wordpress-1{fill:#2795B7;}
	.icono-wordpress-2{fill:#3FB5D1;}
</style>
<g id="Grupo_1986" transform="translate(-8 -7.992)">
	<g id="Grupo_1985" transform="translate(8 7.992)">
		<path id="Trazado_2574" class="icono-wordpress-0" d="M0,20.1c0,7.7,4.4,14.7,11.3,18L1.7,11.9C0.6,14.5,0,17.2,0,20.1z"></path>
		<path id="Trazado_2575" class="icono-wordpress-0" d="M20.4,21.8l-6,17.5c4,1.2,8.4,1.1,12.3-0.3c-0.1-0.1-0.1-0.2-0.1-0.3L20.4,21.8z"></path>
		<path id="Trazado_2576" class="icono-wordpress-0" d="M33.6,19c0-2-0.6-3.9-1.7-5.5c-1-1.7-2-3.1-2-4.7c0-1.9,1.5-3.5,3.4-3.6c0.1,0,0.2,0,0.3,0    C25.4-2.2,12.8-1.7,5.3,6.5C4.5,7.3,3.9,8.1,3.3,9c0.5,0,0.9,0,1.3,0c2.1,0,5.3-0.3,5.3-0.3c0.5,0,0.8,0.3,0.9,0.8    c0,0.4-0.3,0.8-0.8,0.9c0,0-1.1,0.1-2.3,0.2l7.3,21.7l4.4-13.2l-3.1-8.6c-1.1-0.1-2.1-0.2-2.1-0.2c-0.5,0-0.8-0.4-0.8-0.9    c0-0.4,0.4-0.8,0.9-0.8c0,0,3.3,0.3,5.3,0.3c2.1,0,5.3-0.3,5.3-0.3c0.5,0,0.9,0.3,0.9,0.8c0,0.4-0.3,0.8-0.8,0.9    c0,0-1.1,0.1-2.3,0.2l7.2,21.6l2-6.7C32.9,22.8,33.6,20.8,33.6,19z"></path>
		<path id="Trazado_2577" class="icono-wordpress-0" d="M37.8,12.5c0,2.5-0.6,4.9-1.5,7.2l-6.1,17.7c9.4-5.5,12.7-17.4,7.5-27    C37.7,11.1,37.8,11.8,37.8,12.5z"></path>
	</g>
	<path id="Trazado_2578" class="icono-wordpress-1" d="M38,16.8c0-1.9,1.5-3.5,3.4-3.6c0.1,0,0.2,0,0.3,0c-8.2-7.5-20.8-6.9-28.3,1.2   c-0.7,0.8-1.4,1.6-2,2.5c0.5,0,0.9,0,1.3,0c2.1,0,5.3-0.3,5.3-0.3c0.5,0,0.8,0.3,0.9,0.8c0,0.4-0.3,0.8-0.8,0.9   c0,0-1.1,0.1-2.3,0.2l2.8,8.3c2,0.7,4,1,6.1,1c0.9,0,1.8-0.1,2.6-0.2l0.2-0.6l-3.1-8.6c-1.1-0.1-2.1-0.2-2.1-0.2   c-0.5,0-0.8-0.4-0.8-0.9c0-0.4,0.4-0.8,0.9-0.8c0,0,3.3,0.3,5.3,0.3c2.1,0,5.3-0.3,5.3-0.3c0.5,0,0.9,0.3,0.9,0.8   c0,0.4-0.3,0.8-0.8,0.9c0,0-1.1,0.1-2.3,0.2l2.4,7.2c2.4-1.3,4.5-3.1,6-5.4C38.5,19.4,38.1,18.1,38,16.8z"></path>
	<path id="Trazado_2579" class="icono-wordpress-2" d="M28.1,8c-6,0-11.8,2.7-15.6,7.4c3.5,0.7,7,1.1,10.5,1c6.3,0.1,12.5-1.1,18.3-3.5   C37.6,9.8,32.9,8,28.1,8z"></path>
</g>
</svg>