<svg xmlns="http://www.w3.org/2000/svg" xmlns:xlink="http://www.w3.org/1999/xlink" width="96" height="96" viewBox="0 0 96 96"><defs><clipPath id="clip-path"><rect id="Rect&#xE1;ngulo_1225" data-name="Rect&#xE1;ngulo 1225" width="96" height="96" fill="none"></rect></clipPath></defs><g id="Grupo_5735" data-name="Grupo 5735" transform="translate(-114 -204)"><path id="Trazado_13483" data-name="Trazado 13483" d="M186,300H138a24,24,0,0,1-24-24V228a24,24,0,0,1,24-24h48a24,24,0,0,1,24,24v48a24,24,0,0,1-24,24" fill="#2864b4" fill-rule="evenodd"></path><g id="Grupo_5734" data-name="Grupo 5734" transform="translate(114 204)"><g id="Grupo_5733" data-name="Grupo 5733" clip-path="url(#clip-path)"><path id="Trazado_13484" data-name="Trazado 13484" d="M159,231h27a13.5,13.5,0,0,0,1.38-26.931c-.459-.025-.913-.069-1.38-.069H138a24,24,0,0,0-24,24v48a45,45,0,0,1,45-45" transform="translate(-114 -204)" fill="#417dcd" fill-rule="evenodd"></path><path id="Trazado_13485" data-name="Trazado 13485" d="M330,324a24,24,0,1,0,24,24V300a24,24,0,0,1-24,24" transform="translate(-257.998 -276)" fill="#0f4b9b" fill-rule="evenodd"></path></g></g><path id="Trazado_13486" data-name="Trazado 13486" d="M189,354h6a2.993,2.993,0,0,1,3,3v34.5a2.993,2.993,0,0,1-3,3h-6a2.993,2.993,0,0,1-3-3V357a2.993,2.993,0,0,1,3-3Zm0,0" transform="translate(-54 -112.5)" fill="#fff"></path><path id="Trazado_13487" data-name="Trazado 13487" d="M195,277.5a7.5,7.5,0,1,1-2.2-5.3,7.5,7.5,0,0,1,2.2,5.3Zm0,0" transform="translate(-49.5 -49.5)" fill="#fff"></path><path id="Trazado_13488" data-name="Trazado 13488" d="M282,354.96A13.823,13.823,0,0,1,294,348c7.631,0,15,4.5,15,16.5V387a3,3,0,0,1-3,3h-6a3,3,0,0,1-3-3V366a7.5,7.5,0,0,0-15,0v21a3,3,0,0,1-3,3h-6a3,3,0,0,1-3-3V352.5a3,3,0,0,1,3-3h6a3,3,0,0,1,3,3Zm0,0" transform="translate(-117 -108)" fill="#fff" fill-rule="evenodd"></path></g></svg>