<svg xmlns="http://www.w3.org/2000/svg" xmlns:xlink="http://www.w3.org/1999/xlink" width="96.075" height="96.075" viewBox="0 0 96.075 96.075"><defs><clipPath id="clip-path"><rect id="Rect&#xE1;ngulo_1224" data-name="Rect&#xE1;ngulo 1224" width="96" height="96" transform="translate(0 0.075)" fill="none"></rect></clipPath></defs><g id="Grupo_5732" data-name="Grupo 5732" transform="translate(-114 -204)"><path id="Trazado_13479" data-name="Trazado 13479" d="M162.038,300.075H138.019A24.02,24.02,0,0,1,114,276.057V228.019A24.02,24.02,0,0,1,138.019,204h48.038a24.019,24.019,0,0,1,24.019,24.019v48.038a24.019,24.019,0,0,1-24.019,24.019h-9.007a7.506,7.506,0,0,0-15.012,0Zm0,0" fill="#3764b9" fill-rule="evenodd"></path><g id="Grupo_5731" data-name="Grupo 5731" transform="translate(114 204)"><g id="Grupo_5730" data-name="Grupo 5730" clip-path="url(#clip-path)"><path id="Trazado_13480" data-name="Trazado 13480" d="M159.035,231.021h27.021a13.511,13.511,0,0,0,1.381-26.952c-.459-.025-.914-.069-1.381-.069H138.019A24.02,24.02,0,0,0,114,228.019v48.038a45.037,45.037,0,0,1,45.035-45.035" transform="translate(-114 -204)" fill="#507dd2" fill-rule="evenodd"></path><path id="Trazado_13481" data-name="Trazado 13481" d="M330.017,324.019a24.019,24.019,0,1,0,24.019,24.019V300a24.019,24.019,0,0,1-24.019,24.019" transform="translate(-257.96 -275.981)" fill="#1e4ba0" fill-rule="evenodd"></path></g></g><path id="Trazado_13482" data-name="Trazado 13482" d="M300.033,276.009a3,3,0,0,1-3,3h-9.007a3,3,0,0,0-3,3v12.009H296.37a3,3,0,0,1,2.945,3.591c-.558,2.787-1.316,6.573-1.8,9.007a3,3,0,0,1-2.944,2.414h-9.548v36.028H270.009V309.035H261a3,3,0,0,1-3-3v-9.007a3,3,0,0,1,3-3h9.007V282.014A18.014,18.014,0,0,1,288.024,264h9.007a3,3,0,0,1,3,3Zm0,0" transform="translate(-107.972 -44.988)" fill="#fff" fill-rule="evenodd"></path></g></svg>