<svg xmlns="http://www.w3.org/2000/svg" xmlns:xlink="http://www.w3.org/1999/xlink" width="625.887" height="656.161" viewBox="0 0 625.887 656.161"><defs><linearGradient id="linear-gradient" x1="-0.127" y1="0.5" x2="0.873" y2="0.5" gradientUnits="objectBoundingBox"><stop offset="0.075" stop-color="#2e90fe"></stop><stop offset="0.639" stop-color="#1f77e7"></stop><stop offset="1" stop-color="#1a6dde"></stop></linearGradient></defs><g id="Grupo_6416" data-name="Grupo 6416" transform="translate(-930.51 -213.273)"><path id="Trazado_16607" data-name="Trazado 16607" d="M1415.482,752.975l22.457,20.165-14.195,6.04s-14.709-22.946-14.133-24.634S1415.482,752.975,1415.482,752.975Z" transform="translate(-19.273 -24.108)" fill="#ffc2b0"></path><path id="Trazado_16608" data-name="Trazado 16608" d="M1415.671,752.775s-3.752-9.031-7.192-10.7c-2.524-1.222-7.617-1.9-10.148-2.181a.4.4,0,0,0-.3.719l3.2,2.315-4.262-.354-.393,3.052a2.47,2.47,0,0,0,2.026,2.724l6.681,1.3s-1.393,2.508,5.444,6.646C1412.33,757.276,1415.671,752.775,1415.671,752.775Z" transform="translate(-18.748 -23.582)" fill="#ffc2b0"></path><path id="Trazado_16609" data-name="Trazado 16609" d="M1343.937,757.415s21.249,5.962,40.673,69.326l39.99-26.362s4.084-45.339-37.459-70.979Z" transform="translate(-16.631 -23.16)" fill="#c2d8f0"></path><path id="Trazado_16610" data-name="Trazado 16610" d="M1390.968,566.727a67.177,67.177,0,0,0-66.341-1.86l-163.953,88.428-46.533,24.887c-30.31,16.21-32.455,58.764-3.995,79.248h0c38.235,27.52,88.4,31.288,129.229,9.706l55.672-29.425L1426.031,661.3c28.054-16.367,27.593-57.055-.84-74.08Z" transform="translate(-6.418 -16.224)" fill="#c2d8f0" opacity="0.32"></path><path id="Trazado_16611" data-name="Trazado 16611" d="M1285.818,689.2h0a25.849,25.849,0,0,1-25.849-25.849V336.333h51.7V663.352A25.85,25.85,0,0,1,1285.818,689.2Z" transform="translate(-13.254 -7.347)" fill="#0d3b6e"></path><path id="Trazado_16612" data-name="Trazado 16612" d="M1258.686,539.7l1.231-203.362h51.7V539.7Z" transform="translate(-13.202 -7.347)" fill="#0a2b52"></path><path id="Trazado_16613" data-name="Trazado 16613" d="M1359.387,226.475l-6.313-3.645c-21.135-11.538-44.82-8.131-66.635,4.409h0l-173.843,99.8,119.927,219.477,177.062-101.88a18.214,18.214,0,0,0,9.129-15.787V329.232A118.654,118.654,0,0,0,1359.387,226.475Z" transform="translate(-7.325 -2.497)" fill="url(#linear-gradient)"></path><path id="Trazado_16614" data-name="Trazado 16614" d="M1231.023,550.963l-155.694-89.889V386.4c0-46.216,50.03-75.1,90.053-51.993l6.314,3.645a118.653,118.653,0,0,1,59.326,102.756Z" transform="translate(-5.826 -6.943)" fill="#13549c"></path><path id="Trazado_16615" data-name="Trazado 16615" d="M1217.1,387.518l-141.774,76.02,155.694,89.889V443.274A118.56,118.56,0,0,0,1217.1,387.518Z" transform="translate(-5.826 -9.406)" fill="#1a77de"></path><path id="Trazado_16616" data-name="Trazado 16616" d="M1072.1,466.724l-49.313,29.158c-36.691,21.695-36.861,74.724-.311,96.654h0a139.818,139.818,0,0,0,142.517.8l62.8-36.725v-9.8Z" transform="translate(-2.601 -12.593)" fill="#1257a1"></path><path id="Trazado_16617" data-name="Trazado 16617" d="M1073.236,466.724l-50.467,25.953c-36.691,21.695-36.84,68.126-.29,90.057h0a139.818,139.818,0,0,0,142.517.8l62.8-36.726Z" transform="translate(-2.601 -12.593)" fill="#1563b8"></path><ellipse id="Elipse_566" data-name="Elipse 566" cx="19.934" cy="12.693" rx="19.934" ry="12.693" transform="matrix(0.509, -0.861, 0.861, 0.509, 1291.171, 454.356)" fill="#0d3b6e"></ellipse><ellipse id="Elipse_567" data-name="Elipse 567" cx="19.934" cy="12.693" rx="19.934" ry="12.693" transform="translate(1298.218 457.129) rotate(-59.431)" fill="#fff"></ellipse><path id="Trazado_16618" data-name="Trazado 16618" d="M1329.2,305.732l46.412-23.309v33.693L1329.2,342.56Z" transform="translate(-16.039 -5.179)" fill="#c24444"></path><path id="Trazado_16619" data-name="Trazado 16619" d="M1231.07,498.711l-89.294,34.727-65.267-40.554,107.9-41.962,46.664,28.994Z" transform="translate(-5.873 -11.957)" fill="#1257a1" opacity="0.27" style="mix-blend-mode: multiply;isolation: isolate"></path><path id="Trazado_16620" data-name="Trazado 16620" d="M1334.927,459.756h0a5.725,5.725,0,0,1-5.724-5.725v-154.8a5.724,5.724,0,0,1,5.724-5.724h0a5.725,5.725,0,0,1,5.725,5.724v154.8A5.725,5.725,0,0,1,1334.927,459.756Z" transform="translate(-16.039 -5.625)" fill="#0d3b6e"></path><path id="Trazado_16621" data-name="Trazado 16621" d="M1329.2,307.977l.117.074a22.8,22.8,0,0,0,23.048.656l31.342-17.193-.323,35.857L1352.273,345.1a22.8,22.8,0,0,1-23.07-.293h0Z" transform="translate(-16.039 -5.544)" fill="#ed5353"></path><g id="Grupo_6404" data-name="Grupo 6404" transform="translate(1422.399 460.176)"><ellipse id="Elipse_568" data-name="Elipse 568" cx="44.932" cy="25.601" rx="44.932" ry="25.601" transform="translate(42.791 219.216) rotate(-1.538)" fill="#c2d8f0" opacity="0.3"></ellipse><path id="Trazado_16622" data-name="Trazado 16622" d="M1505.664,726.411l12.386-11.934c1.664-.994,5.411-1.678,7.96-1.6a2.066,2.066,0,0,1,2.1,1.815l.191,2.177c.4,3.119.081,3.6-2.116,4.915l-13.04,7.789c-2.2,1.311-5.554,1.725-7.463.918l-.54-.228C1503.233,729.456,1503.468,727.722,1505.664,726.411Z" transform="translate(-1445.464 -482.671)" fill="#343456"></path><path id="Trazado_16623" data-name="Trazado 16623" d="M1526.6,708.3c-.354,4.357-9.3,5.541-9.27,1.1-8.966-41.567-8.7-79.243-8.858-122.793l28.155-21.669c-3.843,37.627-8.681,69.416-9.434,102.017-.1,4.226,1.811,8.789,1.868,12.857C1529.182,688.261,1526.234,700.06,1526.6,708.3Z" transform="translate(-1445.65 -476.719)" fill="#ffc2b0"></path><path id="Trazado_16624" data-name="Trazado 16624" d="M1525.19,716.9s-9.311,5.607-11.3,4.7c-1.676-.766,4.931-6.722,4.931-6.722Z" transform="translate(-1445.857 -482.751)" fill="#ffc2b0"></path><path id="Trazado_16625" data-name="Trazado 16625" d="M1566.726,721.18l.609-20.214c.568-1.881,3.143-2.146,5.264-3.827a2.507,2.507,0,0,1,3.117-.072l1.855,1.5c2.761,2.068,2.881,2.65,2.131,5.133l-4.457,14.744a9.523,9.523,0,0,1-5.317,5.781l-.615.2C1567.14,725.124,1565.976,723.663,1566.726,721.18Z" transform="translate(-1447.984 -482.014)" fill="#343456"></path><path id="Trazado_16626" data-name="Trazado 16626" d="M1574.028,697.732s-1.755,12.827-4.952,13.454c0,0-2.05.4-1.952-2.87s-.428-9.629-.428-9.629Z" transform="translate(-1447.992 -482.061)" fill="#ffc2b0"></path><path id="Trazado_16627" data-name="Trazado 16627" d="M1571.989,693.34c2.072,3.057-1.736,8.768-5.025,6.7-11.365-10.525-19.865-18.753-27.953-26.942-6.127-6.2-4.829-21.472-9.495-30.19-11.13-20.8,14.044-32.343,20.7-9,2.72,9.54-2.891,18.265-.409,26.683,1.337,4.534,6.355,4.807,10.438,11.659C1564.392,679.21,1566.16,683.353,1571.989,693.34Z" transform="translate(-1446.384 -478.974)" fill="#ffc2b0"></path><path id="Trazado_16628" data-name="Trazado 16628" d="M1451.618,554.907h0c2.581-1.18,3.922-3.943,2.98-6.14l-5.416-7.287c-.943-2.2.345-4.062-2.241-2.88h0c-2.58,1.18-4.625,2.731-3.7,7.332l2.8,6.152a8.188,8.188,0,0,0,1.422,2.193C1448.568,555.462,1449.587,555.836,1451.618,554.907Z" transform="translate(-1443.016 -475.645)" fill="#ffc2b0"></path><path id="Trazado_16629" data-name="Trazado 16629" d="M1544.32,485.314c4.669,19.355,33.353,6.978,25.771,37.376-3.643,14.6-40.923,5.883-40.923,5.883l-7.679-43.658Z" transform="translate(-1446.173 -473.5)" fill="#233b6e"></path><path id="Trazado_16630" data-name="Trazado 16630" d="M1513.181,505.689l-35.266,24.493a6.85,6.85,0,0,0-2.939,5.768c.1,4.927,1.776,12.446,11.609,9.482C1515.86,536.606,1513.181,505.689,1513.181,505.689Z" transform="translate(-1444.302 -474.336)" fill="#f0a711"></path><path id="Trazado_16631" data-name="Trazado 16631" d="M1544.035,562.9c7.366,16.73,3.2,52.85,9.359,84.151,0,0-20.411,14.148-44.843,2.412-2.472-20.49-1.386-43.937-3.4-72.015Z" transform="translate(-1445.516 -476.637)" fill="#27427a"></path><path id="Trazado_16632" data-name="Trazado 16632" d="M1536.071,653.6c13.054-19.515,7.109-81.181-.856-88.776l9.271-4.221c16.02,26.2,8.463,54.156,14.626,85.457C1559.111,646.055,1545.428,652.9,1536.071,653.6Z" transform="translate(-1446.725 -476.545)" fill="#213766"></path><path id="Trazado_16633" data-name="Trazado 16633" d="M1506.728,576.2c-.492-7.512,1.845-7.8,1.858-16.488a108.24,108.24,0,0,0-.319-14.533c-.651-5.92-4.2-10.453-2.8-17.63.235-3.926,4.745-10.168,5.1-13.032.557-4.529.946-8.715,10.565-13.014l4.179.982a27.683,27.683,0,0,1,5.723,2.025c19.3,9.349,23.527,9.863,21.974,21.232-.323,5.855-3.731,1.235-4.849,5.1-2.144,7.409-3.258,16.448-.716,29.549.514,2.644,6.153,11.33,4.23,13.536C1540.854,586.318,1510.16,584.07,1506.728,576.2Z" transform="translate(-1445.516 -474.167)" fill="#ffbe3b"></path><g id="Grupo_6400" data-name="Grupo 6400" transform="translate(61.382 91.365)"><path id="Trazado_16634" data-name="Trazado 16634" d="M1506.987,568.217c-.016.282-.025-.02,0,0Z" transform="translate(-1506.972 -568.216)" fill="#ff5cab"></path></g><path id="Trazado_16635" data-name="Trazado 16635" d="M1541.973,509.493s-7.434,16.977-17.724,12.342-2.508-19.976-2.508-19.976A87.634,87.634,0,0,1,1541.973,509.493Z" transform="translate(-1446.07 -474.182)" fill="#ffc2b0"></path><path id="Trazado_16636" data-name="Trazado 16636" d="M1530.045,512.169l-.69.126a3.875,3.875,0,0,1-4.71-3.221l-1.464-12.394a4.518,4.518,0,0,1,3.765-4.772l.69-.127a3.878,3.878,0,0,1,4.711,3.222l3.262,11.57C1535.87,508.771,1532.376,511.742,1530.045,512.169Z" transform="translate(-1446.24 -473.773)" fill="#e8a895"></path><path id="Trazado_16637" data-name="Trazado 16637" d="M1539.921,508.552s-6.594,17.524-16.863,12.662c-7.968-3.773-1.887-18.259-1.887-18.259l-2.172.38s-7.234,17.005,4.409,21.994c10.247,4.39,19.247-15.408,19.247-15.408Z" transform="translate(-1445.984 -474.226)" fill="#fff"></path><path id="Trazado_16638" data-name="Trazado 16638" d="M1524.085,503.186a13.157,13.157,0,0,0,9.693-5.3s-4.052,8.026-9.277,8.821Z" transform="translate(-1446.278 -474.022)" fill="#e8a895"></path><path id="Trazado_16639" data-name="Trazado 16639" d="M1552.541,575.019c1.923-2.206-3.716-10.892-4.23-13.536-2.29-11.808-1.608-20.31.117-27.3l-5.184-5.362c-.972,5.871-2.081,11.637-4.189,16.648-1.765,1.4-7.8,5.857-12.175,4.837,0,0,6.823,2.547,10.884,2.532l1.823,29.4C1544.789,580.879,1549.468,578.542,1552.541,575.019Z" transform="translate(-1446.39 -475.267)" fill="#f0a711"></path><path id="Trazado_16640" data-name="Trazado 16640" d="M1508.559,548.036l3.608-.141c-1.92-.647-3.761-3.142-4.33-3.97-.116-.169-.179-.268-.179-.268Z" transform="translate(-1445.617 -475.863)" fill="#f0a711"></path><path id="Trazado_16641" data-name="Trazado 16641" d="M1535.211,477.241c-1.917-3.2-4.917-3.81-7.74-2.036-2.717-1.158-6.051.417-8.56,4.519-3.495,5.712-3.3,13.729-1.265,18.8,1.1,2.745,2.415,4.666,8.957,3.643,4.435-.771,6.945-2.024,9.521-6.234C1539.618,490.22,1538.006,481.911,1535.211,477.241Z" transform="translate(-1445.96 -473.07)" fill="#ffc2b0"></path><path id="Trazado_16642" data-name="Trazado 16642" d="M1519.671,481.917c7.631,12.269,12.258,8.865,12.415,10.763,0,0,1.237,5.056,1.239,5.068.729,3.778,4.576,2.315,8.227,3.6l.011,0s7.722-17.774-2.49-25.2c-10.239-7.443-24.154-.537-22.81,9.463Z" transform="translate(-1445.96 -473.022)" fill="#233b6e"></path><path id="Trazado_16643" data-name="Trazado 16643" d="M1536.522,495.062a3.185,3.185,0,0,1-4.056,1.245,2.615,2.615,0,0,1-.979-3.785,3.185,3.185,0,0,1,4.056-1.244A2.613,2.613,0,0,1,1536.522,495.062Z" transform="translate(-1446.558 -473.744)" fill="#ffc2b0"></path><g id="Grupo_6402" data-name="Grupo 6402" transform="translate(72.436 22.192)"><g id="Grupo_6401" data-name="Grupo 6401"><path id="Trazado_16644" data-name="Trazado 16644" d="M1520.509,500.32h0c-1.148-.472-2.052-2.342-2.02-4.176l4.157,1.71C1522.614,499.688,1521.658,500.792,1520.509,500.32Z" transform="translate(-1518.488 -496.144)" fill="#fff"></path></g></g><g id="Grupo_6403" data-name="Grupo 6403" transform="translate(3.944 40.362)"><path id="Trazado_16645" data-name="Trazado 16645" d="M1533.073,620.478l-85.946-39.359,1.151-66.044,85.946,39.359Z" transform="translate(-1447.126 -515.075)" fill="#a3c3e8"></path><path id="Trazado_16646" data-name="Trazado 16646" d="M1448.326,515.075l34.258,57.735,51.688-18.377Z" transform="translate(-1447.175 -515.075)" fill="#cee5ff"></path></g><path id="Trazado_16647" data-name="Trazado 16647" d="M1531.347,592.227h0c2.278,1.691,5.345,1.533,6.815-.352l3.77-8.261c1.473-1.889.265-.693-2.017-2.387h0c-2.279-1.691-1.164-3.7-4.746-.664l-4.037,5.422a8.2,8.2,0,0,0-1.235,2.3C1529.39,589.825,1529.554,590.9,1531.347,592.227Z" transform="translate(-1446.502 -477.285)" fill="#ffc2b0"></path><path id="Trazado_16648" data-name="Trazado 16648" d="M1555.288,562.159l-18.11,16.761,2.939,4.337,23.9-11.487a7.453,7.453,0,0,0,4.085-5.2l-2.714-12.039Z" transform="translate(-1446.805 -476.301)" fill="#ffc2b0"></path><path id="Trazado_16649" data-name="Trazado 16649" d="M1543.532,529.582l8.962,26.726c1.388,6.565,6.025,5.438,8.627,4.946,3.86-.73,7.149-3.831,6.09-8.447-2.926-12.756-10.339-29.682-13.886-35.012-1.54-2.315-4.277-2.443-7.789-3.709-.567-.205.308,2.691-.146,3.231h0A12.3,12.3,0,0,0,1543.532,529.582Z" transform="translate(-1447.025 -474.673)" fill="#ffbe3b"></path><path id="Trazado_16650" data-name="Trazado 16650" d="M1488.167,573.045l1.993,4.228,45.715-21.19Z" transform="translate(-1444.833 -476.363)" fill="#8db0d9"></path></g><g id="Grupo_6407" data-name="Grupo 6407" transform="translate(930.51 460.073)"><g id="Grupo_6406" data-name="Grupo 6406" transform="translate(15.633)"><g id="Grupo_6405" data-name="Grupo 6405"><path id="Trazado_16651" data-name="Trazado 16651" d="M1042.361,559.035,946.8,539.023V472.915l95.563,20.011Z" transform="translate(-946.798 -472.915)" fill="#9fbfe3"></path><path id="Trazado_16652" data-name="Trazado 16652" d="M946.8,472.915l38.9,49.9,56.663-29.889Z" transform="translate(-946.798 -472.915)" fill="#c2d8f0"></path></g><path id="Trazado_16653" data-name="Trazado 16653" d="M987.328,523.654l6.5,2.836,50.162-32.726Z" transform="translate(-948.428 -473.754)" fill="#8db0d9"></path></g><path id="Trazado_16654" data-name="Trazado 16654" d="M1017.227,819.328c-12.229-6.181-32.8-5.946-45.955.524a27.445,27.445,0,0,0-5.636,3.6c-8.566-2.469-20.05-1.764-27.838,2.068-9.241,4.546-9.765,11.752-1.172,16.094,8.258,4.174,21.917,4.172,31.172.131.569.346,1.165.682,1.806,1.006,12.229,6.18,32.8,5.946,45.954-.524S1029.457,825.508,1017.227,819.328Z" transform="translate(-930.51 -486.67)" fill="#edf3fb" style="mix-blend-mode: multiply;isolation: isolate"></path><path id="Trazado_16655" data-name="Trazado 16655" d="M961.274,591.551c-1.455-3.642-7.552-20.138-7.552-20.138l-12.93,5.068,8.613,30.5Z" transform="translate(-930.924 -476.877)" fill="#ffc2b0"></path><path id="Trazado_16656" data-name="Trazado 16656" d="M959.49,585.187s9.113,22.485,11.472,29.3-14.933,13.13-14.933,13.13l-14.41-34.333Z" transform="translate(-930.957 -477.431)" fill="#82a1c7"></path><path id="Trazado_16657" data-name="Trazado 16657" d="M942.067,820.68l7.054.82c4.646-1.609,6.788-3.206,8.961-.9l.616.654c1,1.67.734,4.585-.813,5.853l-11.4,9.6c-2.374,1.247-6.883.314-7.715-3.144,0,0-.795-9.735.3-10.269C941.265,822.215,940.168,821.677,942.067,820.68Z" transform="translate(-930.831 -486.855)" fill="#27427a"></path><path id="Trazado_16658" data-name="Trazado 16658" d="M959.553,721.6l26.562,4.634V698.5l-26.562-4.634Z" transform="translate(-931.678 -481.803)" fill="#27427a"></path><path id="Trazado_16659" data-name="Trazado 16659" d="M995.78,826l9.449.8c6.752-1.487,10.075-2.974,12.483-.808l.682.613c.957,1.567-.123,4.295-2.55,5.476l-17.952,8.937c-3.555,1.158-7.465.22-7.751-3.021,0,0-.726-9.07.9-9.565C994.3,827.437,992.936,826.93,995.78,826Z" transform="translate(-932.902 -487.075)" fill="#27427a"></path><path id="Trazado_16660" data-name="Trazado 16660" d="M1001.025,829.739c.267,3.8-8.987,4.453-9.254.649l-.867-12.365,9.254-.648Z" transform="translate(-932.939 -486.772)" fill="#a8acba"></path><path id="Trazado_16661" data-name="Trazado 16661" d="M1001.358,813.122c-2.873,4.638-10.894,5.224-12.865,2.4-2.439-17.392-9.864-35.513-5.1-60.091l-13.8-72.234,33.1,3.831-.905,77.527Z" transform="translate(-932.082 -481.374)" fill="#27427a"></path><path id="Trazado_16662" data-name="Trazado 16662" d="M948.1,825.848c-.6,3.765-9.765,2.295-9.16-1.47l1.965-12.239,9.16,1.47Z" transform="translate(-930.848 -486.561)" fill="#a8acba"></path><path id="Trazado_16663" data-name="Trazado 16663" d="M951.8,809.714c-3.851,3.864-11.8,2.614-13.075-.582,1.576-17.491-1.538-36.826,8.682-59.68l2.966-73.481,31.365,11.25-18.492,75.3Z" transform="translate(-930.841 -481.083)" fill="#27427a"></path><path id="Trazado_16664" data-name="Trazado 16664" d="M985.445,597.9c.6,7.488-3.714,11.277-9.63,8.463s-8.571-11.876-9.169-19.364,4.27-8.205,7-7.753C980.113,580.316,984.847,590.411,985.445,597.9Z" transform="translate(-931.962 -477.188)" fill="#ed5353"></path><path id="Trazado_16665" data-name="Trazado 16665" d="M995.167,594.539c-.209,7.508-7.056,11.965-12.636,8.532s-9.935-12.3-9.725-19.813,4.9-10.814,10.484-7.381S995.378,587.03,995.167,594.539Z" transform="translate(-932.211 -477.002)" fill="#ffc2b0"></path><path id="Trazado_16666" data-name="Trazado 16666" d="M977.194,618.445l-.768-.2a4.884,4.884,0,0,1-3.495-5.934l3.783-14.621a4.884,4.884,0,0,1,5.934-3.495l.768.2a4.885,4.885,0,0,1,3.494,5.935l-1.57,14.583C984.67,617.506,979.786,619.116,977.194,618.445Z" transform="translate(-932.21 -477.788)" fill="#ffc2b0"></path><path id="Trazado_16667" data-name="Trazado 16667" d="M969.233,601.093s1.4,5.061,10.619,4.024c6.958-.782,1.967-12.719,8.337-15.675,8.614-4,5.215-12.429,1.406-15.183s-8.647-1.163-14.606.831C968.684,577.2,960.1,582.079,969.233,601.093Z" transform="translate(-931.908 -476.932)" fill="#6d3a1d"></path><circle id="Elipse_569" data-name="Elipse 569" cx="3.307" cy="3.307" r="3.307" transform="translate(51.76 112.275)" fill="#ffc2b0"></circle><path id="Trazado_16668" data-name="Trazado 16668" d="M948.388,689.064c-1-20.407,2.359-37.431,1.459-53.37.348-30.457,3.447-24.049,13.395-26.1l6.681-.746c2.086.4,4.019,1.358,6.081,1.863,8.638,2.113,14.176,2.584,20.379,5.943,5.524,2.992,5.846,10.988,5.833,17.686,1.492,19.632,1.888,49.185,2.165,58.877C1001.239,707.087,953.645,698.455,948.388,689.064Z" transform="translate(-931.221 -478.383)" fill="#82a1c7"></path><path id="Trazado_16669" data-name="Trazado 16669" d="M989.131,605.153l-1.209-1.559a4.968,4.968,0,0,0,4.187.014A6.366,6.366,0,0,1,989.131,605.153Z" transform="translate(-932.82 -478.172)" fill="#ffc2b0"></path><path id="Trazado_16670" data-name="Trazado 16670" d="M1006.164,637.794l-5.067,5.467c-5.95,24.008-3.192,48.347-12.947,58.588,5.969-.017,11.438-.8,15.483-3.777.217.027,2.083-1.633,2.354-4.626Z" transform="translate(-932.829 -479.548)" fill="#82a1c7"></path><path id="Trazado_16671" data-name="Trazado 16671" d="M969.637,608.416s-1.615,4.416,3.586,6.059,13.794-1.251,13.794-1.251S981.3,607.23,969.637,608.416Z" transform="translate(-932.074 -478.36)" fill="#fff"></path><path id="Trazado_16672" data-name="Trazado 16672" d="M989.009,595.34h0a1.105,1.105,0,0,1-1.239-.947l-1.957-7.015c-.081-.6,1.486-.247,2.087-.327h0c.6-.081,2.321-.626,2.4-.025l-.345,7.075A1.106,1.106,0,0,1,989.009,595.34Z" transform="translate(-932.734 -477.494)" fill="#6d3a1d"></path><path id="Trazado_16673" data-name="Trazado 16673" d="M947.823,537.18s-7.945,29.427-7.051,37.319,13.8-1.61,13.8-1.61l1.682-31.777Z" transform="translate(-930.92 -475.5)" fill="#ffc2b0"></path><path id="Trazado_16674" data-name="Trazado 16674" d="M946.969,529.67h0c2.622-1.416,5.68-.858,6.794,1.239l2.195,8.845c1.117,2.1.132.735-2.494,2.153h0c-2.621,1.417-1.889,3.592-4.907.059l-3.014-6.008a7.844,7.844,0,0,1-.8-2.489C944.533,531.848,944.905,530.785,946.969,529.67Z" transform="translate(-931.081 -475.167)" fill="#ffc2b0"></path><path id="Trazado_16675" data-name="Trazado 16675" d="M1046.808,554.345s-2.51,27.467-6.246,34.475-15.148-2.944-15.148-2.944l13.175-30.691Z" transform="translate(-934.328 -476.191)" fill="#ffc2b0"></path><path id="Trazado_16676" data-name="Trazado 16676" d="M1047.351,544.033h0c-2.719-1.22-5.727-.44-6.685,1.734l-1.54,8.982c-.96,2.178-.078.743,2.645,1.965h0c2.719,1.22,2.148,3.445,4.9-.3l2.564-6.213a7.833,7.833,0,0,0,.612-2.541C1049.94,546.025,1049.49,544.993,1047.351,544.033Z" transform="translate(-934.864 -475.753)" fill="#ffc2b0"></path><path id="Trazado_16677" data-name="Trazado 16677" d="M1025.786,615.476c1.878-3.443,12.2-24.034,12.2-24.034l-12.149-6.731-26.208,34.525Z" transform="translate(-933.29 -477.412)" fill="#ffc2b0"></path><path id="Trazado_16678" data-name="Trazado 16678" d="M1005.8,643.374l23.128-30.436c6.2-3.664-14.239-18.8-20.633-13.719-.4.32-20.371,22.31-20.371,22.31S993.5,644.358,1005.8,643.374Z" transform="translate(-932.82 -477.954)" fill="#82a1c7"></path></g><g id="Grupo_6410" data-name="Grupo 6410" transform="translate(1095.182 692.663)"><path id="Trazado_16679" data-name="Trazado 16679" d="M1204.6,843.034l115.8-66.857-71.6-41.338-72.113,112.254Z" transform="translate(-1105.085 -716.042)" fill="#c2d8f0"></path><g id="Grupo_6408" data-name="Grupo 6408" transform="translate(0 18.797)"><path id="Trazado_16680" data-name="Trazado 16680" d="M1173.683,843.034l115.8-66.857-71.6-41.338-115.8,66.857Z" transform="translate(-1102.084 -734.839)" fill="#c44545"></path><path id="Trazado_16681" data-name="Trazado 16681" d="M1102.084,804.5v3.392l71.6,42.005v-4.059Z" transform="translate(-1102.084 -737.641)" fill="#b03f3f"></path><path id="Trazado_16682" data-name="Trazado 16682" d="M1292.483,782.059l-115.8,66.766v-4.059l115.8-66.857Z" transform="translate(-1105.085 -736.572)" fill="#a13939"></path></g><g id="Grupo_6409" data-name="Grupo 6409" transform="translate(0 9.649)"><path id="Trazado_16683" data-name="Trazado 16683" d="M1173.683,833.5l115.8-66.857-71.6-41.338-115.8,66.857Z" transform="translate(-1102.084 -725.307)" fill="#c44545"></path><path id="Trazado_16684" data-name="Trazado 16684" d="M1102.084,794.966v3.392l71.6,42.005V836.3Z" transform="translate(-1102.084 -728.109)" fill="#b03f3f"></path><path id="Trazado_16685" data-name="Trazado 16685" d="M1292.483,772.527l-115.8,66.766v-4.059l115.8-66.857Z" transform="translate(-1105.085 -727.04)" fill="#a13939"></path></g><path id="Trazado_16686" data-name="Trazado 16686" d="M1173.683,823.448l115.8-66.857-71.6-41.338-115.8,66.857Z" transform="translate(-1102.084 -715.254)" fill="#ed5353"></path><path id="Trazado_16687" data-name="Trazado 16687" d="M1102.084,784.913V788.3l71.6,42.005v-4.059Z" transform="translate(-1102.084 -718.056)" fill="#b03f3f"></path><path id="Trazado_16688" data-name="Trazado 16688" d="M1292.483,762.474l-115.8,66.766v-4.059l115.8-66.857Z" transform="translate(-1105.085 -716.986)" fill="#a13939"></path><path id="Trazado_16689" data-name="Trazado 16689" d="M1176.684,824.891l14.993-61.349,21.538-12.421,79.268,6.914Z" transform="translate(-1105.085 -716.697)" fill="#d94c4c"></path><path id="Trazado_16690" data-name="Trazado 16690" d="M1102.084,782.11l114.038-10.046,1.761-56.811Z" transform="translate(-1102.084 -715.254)" fill="#f26d6d"></path><path id="Trazado_16691" data-name="Trazado 16691" d="M1102.944,784.6l100.633.9-17.959-8.255Z" transform="translate(-1102.118 -717.748)" fill="#d94c4c"></path></g><path id="Trazado_16692" data-name="Trazado 16692" d="M1443.141,763.531l-7.288-15.288-9.48.875,5.177,16.062Z" transform="translate(-19.948 -23.918)" fill="#ed5353"></path><path id="Trazado_16693" data-name="Trazado 16693" d="M1439.912,728.99s4.738,26.712-13.415,27.759c0,0-7.167,2.61-7.284-16.166S1432.086,724.413,1439.912,728.99Z" transform="translate(-19.66 -23.01)" fill="#ffc2b0"></path><path id="Trazado_16694" data-name="Trazado 16694" d="M1424.693,757.621a21.871,21.871,0,0,0,6.82-8.5l7.867,4.64,3.33,9.048-11.789,1.366-1.735-6.428S1425.921,758.294,1424.693,757.621Z" transform="translate(-19.88 -23.953)" fill="#ffc2b0"></path><path id="Trazado_16695" data-name="Trazado 16695" d="M1437.829,754l-1.29-.107c-1.137.28-3.142-2.372-3.573-3.476-.762-1.95-3.244-2.951-4.006-5.9-.3-1.17-2.7-.65-3.265-2.762-1.036-3.891-5.915-7.663-5.915-7.663s-2.343-.805-1.844-2.773c.728-2.873,2.468-2.3,4.3-3.91,4.1-3.6,19.012-5.134,23.356,4.521C1450.551,742.947,1437.829,754,1437.829,754Z" transform="translate(-19.605 -22.968)" fill="#233b6e"></path><path id="Trazado_16696" data-name="Trazado 16696" d="M1426.734,746.913c.1,1.85,1.369,3.325,2.841,3.293s2.588-1.56,2.491-3.41-1.37-3.326-2.842-3.293S1426.637,745.062,1426.734,746.913Z" transform="translate(-19.962 -23.727)" fill="#ffc2b0"></path><ellipse id="Elipse_570" data-name="Elipse 570" cx="44.698" cy="23.381" rx="44.698" ry="23.381" transform="matrix(0.999, -0.046, 0.046, 0.999, 1365.75, 821.781)" fill="#a8c4e5" opacity="0.23" style="mix-blend-mode: multiply;isolation: isolate"></ellipse><path id="Trazado_16697" data-name="Trazado 16697" d="M1396.553,847.827s.149,17.044,42.809,29.681l2.6-3.993-36.135-35.956Z" transform="translate(-18.748 -27.511)" fill="#ffc2b0"></path><path id="Trazado_16698" data-name="Trazado 16698" d="M1440.59,880.236l7.617,3.505c4.545,4.085,6.453,6.675,9.25,6.059l.793-.175c2.8-.616,3.26-3.116,1.03-5.555l-8.725-12.952a8.076,8.076,0,0,0-8.851-1.883s-1.678.764-2.316,6.013C1439.024,878.242,1438.806,878.285,1440.59,880.236Z" transform="translate(-20.461 -28.761)" fill="#213766"></path><path id="Trazado_16699" data-name="Trazado 16699" d="M1385.933,850.514s-9.443,17.512,43.92,36.814l3.788-7.5-36.717-28.85Z" transform="translate(-18.295 -28.032)" fill="#ffc2b0"></path><path id="Trazado_16700" data-name="Trazado 16700" d="M1455.443,826.378l-45.337,2.587a25.48,25.48,0,0,0-14.118,5.227c-8.589,6.621-19.48,18.606.334,26.63l39.957,13.492c8.568,2.983,16.418,2.86,22.242-4.795,5.133-6.746,5.282-22.28,1.838-29.152Z" transform="translate(-18.29 -27.061)" fill="#213766"></path><path id="Trazado_16701" data-name="Trazado 16701" d="M1396.067,834.364c-3.708,2.858-7.842,6.716-9.752,10.823l24.136,8.15c6.534,1.211,12.447-.1,17.077-6.191,3.295-4.331,4.525-12.276,4.079-19.232l-21.422,1.222A25.5,25.5,0,0,0,1396.067,834.364Z" transform="translate(-18.336 -27.123)" fill="#27427a"></path><path id="Trazado_16702" data-name="Trazado 16702" d="M1431.484,889.043l7.5,3.453c4.48,4.025,6.359,6.578,9.116,5.971l.781-.172c2.755-.607,3.212-3.071,1.015-5.474l-3.609-4.7a28.32,28.32,0,0,1-1.937-2.872l-3.052-5.187a7.957,7.957,0,0,0-8.722-1.855s-1.654.752-2.281,5.925C1429.941,887.078,1429.726,887.121,1431.484,889.043Z" transform="translate(-20.096 -29.122)" fill="#213766"></path><path id="Trazado_16703" data-name="Trazado 16703" d="M1457.426,819.639s-.125-11.21.257-18.132c.557-10.1,1.024-28.383,1.024-28.458,0-5.335,2.235-8.562-6.7-13.221l-9.731-2.395-12.605,6.365s-18.2,13.426-17.024,25.8c.548,5.781,6.482,14.642,8.69,22.578l-2.346,15.551c1.047,11.958,34.2,5.862,39.3-3.951C1459.353,821.716,1458.141,819.842,1457.426,819.639Z" transform="translate(-19.393 -24.287)" fill="#176bc7"></path><path id="Trazado_16704" data-name="Trazado 16704" d="M1422.553,786.5c6.78,12.311,7.857,45.481,8.452,48.708-6.676.006-12.045-1.9-12.457-6.6l2.346-15.551c-2.206-7.935-8.141-16.8-8.69-22.577-.4-4.2,1.437-8.517,4.032-12.393.7-.47,1.123-.749,1.123-.749S1419.2,780.405,1422.553,786.5Z" transform="translate(-19.376 -25.088)" fill="#13549c"></path><path id="Trazado_16705" data-name="Trazado 16705" d="M1392.2,801.412c-10.415-9.3-20.772-14.053-26.265-21.693l-3.516,4.858s23.284,33.228,29.288,29.654C1400.683,808.891,1392.2,801.412,1392.2,801.412Z" transform="translate(-17.375 -25.184)" fill="#ffc2b0"></path><path id="Trazado_16706" data-name="Trazado 16706" d="M1423.219,781.686s-21.977,29.726-28.48,30.329-4.951-10.535-4.951-10.535l25.108-25.109Z" transform="translate(-18.469 -25.049)" fill="#ffc2b0"></path><path id="Trazado_16707" data-name="Trazado 16707" d="M1400.06,790.576l-2.62,3.019a14.666,14.666,0,0,0,10.208,9.245l2.726-2.936Z" transform="translate(-18.784 -25.621)" fill="#fff"></path><path id="Trazado_16708" data-name="Trazado 16708" d="M1426.686,766.626a31.518,31.518,0,0,0-15.235,10.772c-3.254,4.45-11.417,12.556-11.417,12.556-.314,5.358,3.163,8.126,11.724,11.527l27.407-31.216Z" transform="translate(-18.887 -24.657)" fill="#176bc7"></path><path id="Trazado_16709" data-name="Trazado 16709" d="M1427.24,766.224l2.752-5.2,20.066-4.385s-1.858,9.017-10.834,7.676C1434.024,763.533,1427.24,766.224,1427.24,766.224Z" transform="translate(-19.983 -24.255)" fill="#fff"></path><path id="Trazado_16710" data-name="Trazado 16710" d="M1363.05,772.159c-.093.813.905,2.7,1.138,3.9a37.259,37.259,0,0,1,.618,6.328s2.624,2.234,4.106-.311-1.837-6.8-1.837-6.8l-2.711-5.35S1363.391,769.167,1363.05,772.159Z" transform="translate(-17.4 -24.786)" fill="#ffc2b0"></path><path id="Trazado_16711" data-name="Trazado 16711" d="M1355.085,775.8c-.165-1.051-.343-2.217-.343-2.217a6.293,6.293,0,0,1,1.3-4.953l3.776,4.282c2.314,1.444,4.187,2.77,4.493,4.16l1.323.582a.586.586,0,0,1,.343.469l.758,6.122a.589.589,0,0,1-.889.593c-.447-.29-1.072-.733-1.793-1.263l-.442,2.075s-5.24-4.919-7.161-7.219c-.019-.023-.042-.049-.07-.078A4.775,4.775,0,0,1,1355.085,775.8Z" transform="translate(-17.063 -24.738)" fill="#ffc2b0"></path><path id="Trazado_16712" data-name="Trazado 16712" d="M1450.2,892.739l-3.609-4.7a28.184,28.184,0,0,1-1.936-2.872l-3.052-5.188a7.985,7.985,0,0,0-7.884-2.14c.13.385-.239-.352,0,0-.572,1.311,2.781,6.3,7.1,11.337l6.526,9.044c.06.087.125.168.188.25a3.578,3.578,0,0,0,.87-.082l.781-.172C1451.937,897.606,1452.394,895.143,1450.2,892.739Z" transform="translate(-20.24 -29.119)" fill="#172747"></path><path id="Trazado_16713" data-name="Trazado 16713" d="M1231.07,488.437l-89.294,34.727-65.267-40.554,107.9-41.962,46.664,28.995Z" transform="translate(-5.873 -11.544)" fill="#9fbfe3"></path><path id="Trazado_16714" data-name="Trazado 16714" d="M1076.509,482.61l86.582-.7,21.315-41.258Z" transform="translate(-5.873 -11.544)" fill="#c2d8f0"></path><path id="Trazado_16715" data-name="Trazado 16715" d="M1233.518,444.61a118.611,118.611,0,0,0-2.436-23.894l-93.734,21.42,49.725,46.1,46.445-10.614Z" transform="translate(-8.321 -10.742)" fill="#e0efff"></path><path id="Trazado_16716" data-name="Trazado 16716" d="M1233.13,439.847l-11.108,11.671-84.674-9.382,93.734-21.42S1234.448,432.263,1233.13,439.847Z" transform="translate(-8.321 -10.742)" fill="#fafcff"></path><path id="Trazado_16717" data-name="Trazado 16717" d="M1076.509,460.966V383.722c0-46.216,50.03-75.1,90.053-51.993l6.313,3.645A118.653,118.653,0,0,1,1232.2,438.13V548.283" transform="translate(-5.873 -6.835)" fill="none" stroke="#c2d8f0" stroke-linecap="round" stroke-linejoin="round" stroke-width="2"></path><path id="Trazado_16718" data-name="Trazado 16718" d="M1438.682,731.415s10.32-9.931,16.545,4.771-.278,30.285,10.055,39.627c0,0-19.878-2.281-20.488-15.15s1.934-23.331-5.133-24.582S1438.682,731.415,1438.682,731.415Z" transform="translate(-20.345 -23.109)" fill="#233b6e"></path><path id="Trazado_16719" data-name="Trazado 16719" d="M1382.792,397.07l92.863-15.21-58.5,33.626Z" transform="translate(-18.194 -9.179)" fill="#fff"></path><path id="Trazado_16720" data-name="Trazado 16720" d="M1477.558,381.86l-47.493,39.064,29.178,18.513Z" transform="translate(-20.096 -9.179)" fill="#fff"></path><path id="Trazado_16721" data-name="Trazado 16721" d="M1418.592,415.486l4.249,22.1,6.762-16.663L1477.1,381.86Z" transform="translate(-19.635 -9.179)" fill="#bed5f0"></path><path id="Trazado_16722" data-name="Trazado 16722" d="M1423.019,439.225l16.863-10.255-10.1-6.409Z" transform="translate(-19.813 -10.816)" fill="#a3c3e8"></path><g id="Grupo_6414" data-name="Grupo 6414" transform="translate(1267.256 426.471)"><g id="Grupo_6411" data-name="Grupo 6411" transform="translate(0 128.124)"><path id="Trazado_16723" data-name="Trazado 16723" d="M1287.829,575.487a.954.954,0,0,1-.5-.039,55.514,55.514,0,0,1-5.423-2.23.96.96,0,0,1,.853-1.719,54.811,54.811,0,0,0,5.219,2.142.959.959,0,0,1-.147,1.846Z" transform="translate(-1281.37 -571.398)" fill="#fff"></path></g><g id="Grupo_6412" data-name="Grupo 6412" transform="translate(16.291 9.45)"><path id="Trazado_16724" data-name="Trazado 16724" d="M1322.109,573.676a.96.96,0,0,1-.383-1.881,40.033,40.033,0,0,0,10.411-3.814.96.96,0,0,1,.909,1.692,42.1,42.1,0,0,1-10.909,4Zm-11.312,1.09a1,1,0,0,1-.194.016,64.7,64.7,0,0,1-11.483-1.235.96.96,0,1,1,.37-1.885,62.759,62.759,0,0,0,11.141,1.2.96.96,0,0,1,.166,1.9Zm31.108-11.736a.96.96,0,0,1-.851-1.63,47.288,47.288,0,0,0,6.941-8.706.96.96,0,0,1,1.626,1.02,49.318,49.318,0,0,1-7.224,9.059A.958.958,0,0,1,1341.905,563.03Zm12.2-19.038a.96.96,0,0,1-1.067-1.3l.219-.547c1.3-3.3,2.526-6.694,3.645-10.092a.96.96,0,1,1,1.823.6c-1.131,3.432-2.371,6.862-3.684,10.194l-.225.565A.961.961,0,0,1,1354.1,543.992Zm7.146-21.607a.96.96,0,0,1-1.106-1.193c.927-3.44,1.811-7.044,2.7-11.019a.96.96,0,0,1,1.873.418c-.9,4-1.785,7.633-2.719,11.1A.961.961,0,0,1,1361.251,522.385Zm5.053-22.2a.941.941,0,0,1-.37,0,.96.96,0,0,1-.75-1.131l.233-1.153c.707-3.495,1.376-6.8,2.09-10.013a.96.96,0,0,1,1.875.417c-.711,3.2-1.378,6.492-2.083,9.978l-.234,1.153A.96.96,0,0,1,1366.3,500.182Zm5.162-22.168a.96.96,0,0,1-1.1-1.225,73.567,73.567,0,0,1,4.159-10.739.96.96,0,0,1,1.726.841,71.593,71.593,0,0,0-4.049,10.462A.961.961,0,0,1,1371.466,478.014Zm10.11-20.231a.96.96,0,0,1-.934-1.537,55.525,55.525,0,0,1,8.053-8.271.96.96,0,1,1,1.234,1.469,53.65,53.65,0,0,0-7.778,7.988A.961.961,0,0,1,1381.576,457.784Z" transform="translate(-1298.344 -447.75)" fill="#fff"></path></g><g id="Grupo_6413" data-name="Grupo 6413" transform="translate(115.712 0)"><path id="Trazado_16725" data-name="Trazado 16725" d="M1403.071,442.612a.96.96,0,0,1-.672-1.767c1.6-.96,3.313-1.913,5.081-2.832a.96.96,0,1,1,.886,1.7c-1.734.9-3.41,1.836-4.981,2.777A.952.952,0,0,1,1403.071,442.612Z" transform="translate(-1401.933 -437.904)" fill="#fff"></path></g></g><path id="Trazado_16726" data-name="Trazado 16726" d="M1082.685,371.615c1-18.29-12.029-38.751-29.1-45.7-6.934-2.823-13.469-2.982-18.852-.95h0a19.7,19.7,0,0,0-4.6,2.472l-14.846,7.975,5.667,9.907c-.033.375-.068.748-.089,1.131-.941,17.192,10.516,36.3,26.074,44.3l6.319,11.049,16.536-9.1,0,0C1077.126,389.475,1082.116,382.02,1082.685,371.615Z" transform="translate(-3.41 -6.835)" fill="#f0a711"></path><ellipse id="Elipse_571" data-name="Elipse 571" cx="27.315" cy="38.311" rx="27.315" ry="38.311" transform="matrix(0.84, -0.543, 0.543, 0.84, 987.799, 344.084)" fill="#ffbe3b"></ellipse><g id="Grupo_6415" data-name="Grupo 6415" transform="translate(1019.546 340.2)"><path id="Trazado_16727" data-name="Trazado 16727" d="M1023.278,375.481l7.839,2.975v-25.23l-6.227-2.363v-2.846a17.086,17.086,0,0,0,7.246.227l3.38,1.283v30.6l7.086,2.688v3.651l-19.325-7.333Z" transform="translate(-1023.278 -348.017)" fill="#fff"></path></g><line id="L&#xED;nea_52" data-name="L&#xED;nea 52" x2="11.587" y2="4.212" transform="translate(984.333 321.423)" fill="none" stroke="#27427a" stroke-linecap="round" stroke-linejoin="round" stroke-width="2"></line><line id="L&#xED;nea_53" data-name="L&#xED;nea 53" x2="0.388" y2="10.627" transform="translate(1019.725 299.492)" fill="none" stroke="#27427a" stroke-linecap="round" stroke-linejoin="round" stroke-width="2"></line><line id="L&#xED;nea_54" data-name="L&#xED;nea 54" x2="6.639" y2="10.478" transform="translate(998.491 303.141)" fill="none" stroke="#27427a" stroke-linecap="round" stroke-linejoin="round" stroke-width="2"></line></g></svg>